<svg width="121" height="120" viewBox="0 0 121 120" fill="none" xmlns="http://www.w3.org/2000/svg">
<path d="M95.1138 37.212H74.9838C75.6666 36.744 76.3218 36.2508 76.9146 35.7036C82.191 30.8364 81.3774 25.0788 78.3894 21.786C78.3378 21.7284 78.2826 21.6744 78.225 21.6216C76.5342 20.0892 74.3862 19.2444 72.1746 19.2444C70.209 19.2444 67.2486 19.914 64.3086 23.0988C63.015 24.5004 61.9494 26.16 61.1094 28.0344C60.2706 26.16 59.2038 24.5004 57.9102 23.0988C54.9714 19.914 52.0098 19.2444 50.0442 19.2444C47.8326 19.2444 45.6834 20.0892 43.9938 21.6216C43.9362 21.6744 43.881 21.7296 43.8282 21.7872C40.8426 25.0788 40.0302 30.8376 45.3042 35.7036C45.8982 36.2508 46.5534 36.744 47.235 37.212H25.8858C22.1958 37.212 19.1934 40.2144 19.1934 43.9044V61.3548C19.1934 64.9704 22.077 67.9188 25.665 68.0352V98.3568C25.665 99.6816 26.7402 100.757 28.065 100.757H50.6082H69.3558H91.8978C93.2226 100.757 94.2978 99.6816 94.2978 98.3568V68.0472H95.115C98.805 68.0472 101.807 65.0448 101.807 61.3548V43.9044C101.806 40.2144 98.8038 37.212 95.1138 37.212ZM67.8378 26.3544C69.231 24.8424 70.7322 24.0444 72.1758 24.0444C73.1562 24.0444 74.1246 24.4188 74.9142 25.1004C76.3038 26.7096 76.6878 29.3844 73.6614 32.1756C70.9194 34.704 67.173 35.7432 63.8922 36.1212C64.2702 32.8416 65.307 29.0964 67.8378 26.3544ZM47.3082 25.1004C48.0978 24.4188 49.0662 24.0444 50.0466 24.0444C51.4902 24.0444 52.9902 24.8424 54.3846 26.3544C56.9142 29.0952 57.9522 32.8416 58.3302 36.1224C55.0494 35.7432 51.303 34.7052 48.5622 32.1768C45.537 29.3844 45.9186 26.7108 47.3082 25.1004ZM30.4638 68.0472H48.207V95.9568H30.4638V68.0472ZM53.007 95.9568V68.0472H66.9546V95.9568H53.007ZM89.4966 95.9568H71.7546V68.0472H89.4966V95.9568ZM97.0062 61.3548C97.0062 62.3988 96.1566 63.2472 95.1138 63.2472H91.8966H69.3546H50.607H28.0638H25.8858C24.8418 63.2472 23.9934 62.3988 23.9934 61.3548V43.9044C23.9934 42.8604 24.843 42.012 25.8858 42.012H95.1138C96.1578 42.012 97.0062 42.8604 97.0062 43.9044V61.3548Z" fill="#F4AC05"/>
<path d="M36.5 52H82.5" stroke="#F4AC05" stroke-width="5" stroke-linecap="round"/>
</svg>
