<svg width="95" height="95" viewBox="0 0 95 95" fill="none" xmlns="http://www.w3.org/2000/svg">
<g clip-path="url(#clip0_141_6382)">
<path d="M87.8898 91.2891H81.8187V87.2516C81.8187 86.8579 81.6624 86.4804 81.384 86.202C81.1056 85.9236 80.7281 85.7672 80.3344 85.7672C79.9407 85.7672 79.5631 85.9236 79.2848 86.202C79.0064 86.4804 78.85 86.8579 78.85 87.2516V91.2891H73.2242V87.2516C73.2242 86.8579 73.0678 86.4804 72.7895 86.202C72.5111 85.9236 72.1335 85.7672 71.7398 85.7672C71.3462 85.7672 70.9686 85.9236 70.6902 86.202C70.4119 86.4804 70.2555 86.8579 70.2555 87.2516V91.2891H64.6297V87.2516C64.6297 86.8579 64.4733 86.4804 64.1949 86.202C63.9166 85.9236 63.539 85.7672 63.1453 85.7672C62.7516 85.7672 62.3741 85.9236 62.0957 86.202C61.8173 86.4804 61.6609 86.8579 61.6609 87.2516V91.2891H56.0352V87.2516C56.0352 86.8579 55.8788 86.4804 55.6004 86.202C55.322 85.9236 54.9445 85.7672 54.5508 85.7672C54.1571 85.7672 53.7795 85.9236 53.5012 86.202C53.2228 86.4804 53.0664 86.8579 53.0664 87.2516V91.2891H47.5V87.2516C47.5 86.8579 47.3436 86.4804 47.0652 86.202C46.7869 85.9236 46.4093 85.7672 46.0156 85.7672C45.6219 85.7672 45.2444 85.9236 44.966 86.202C44.6876 86.4804 44.5312 86.8579 44.5312 87.2516V91.2891H38.8609V87.2516C38.8609 86.8579 38.7045 86.4804 38.4262 86.202C38.1478 85.9236 37.7702 85.7672 37.3766 85.7672C36.9829 85.7672 36.6053 85.9236 36.327 86.202C36.0486 86.4804 35.8922 86.8579 35.8922 87.2516V91.2891H30.2516V87.2516C30.2516 86.8579 30.0952 86.4804 29.8168 86.202C29.5384 85.9236 29.1609 85.7672 28.7672 85.7672C28.3735 85.7672 27.996 85.9236 27.7176 86.202C27.4392 86.4804 27.2828 86.8579 27.2828 87.2516V91.2891H21.6719V87.2516C21.6719 86.8579 21.5155 86.4804 21.2371 86.202C20.9587 85.9236 20.5812 85.7672 20.1875 85.7672C19.7938 85.7672 19.4163 85.9236 19.1379 86.202C18.8595 86.4804 18.7031 86.8579 18.7031 87.2516V91.2891H13.0773V87.2516C13.0773 86.8579 12.921 86.4804 12.6426 86.202C12.3642 85.9236 11.9866 85.7672 11.593 85.7672C11.1993 85.7672 10.8217 85.9236 10.5434 86.202C10.265 86.4804 10.1086 86.8579 10.1086 87.2516V91.2891H2.96875V84.0602H6.94687C7.34056 84.0602 7.71811 83.9038 7.99649 83.6255C8.27486 83.3471 8.43125 82.9695 8.43125 82.5758C8.43125 82.1822 8.27486 81.8046 7.99649 81.5262C7.71811 81.2478 7.34056 81.0915 6.94687 81.0915H2.96875V75.4657H6.94687C7.34056 75.4657 7.71811 75.3093 7.99649 75.0309C8.27486 74.7525 8.43125 74.375 8.43125 73.9813C8.43125 73.5876 8.27486 73.2101 7.99649 72.9317C7.71811 72.6533 7.34056 72.4969 6.94687 72.4969H2.96875V66.8711H6.94687C7.34056 66.8711 7.71811 66.7148 7.99649 66.4364C8.27486 66.158 8.43125 65.7804 8.43125 65.3868C8.43125 64.9931 8.27486 64.6155 7.99649 64.3372C7.71811 64.0588 7.34056 63.9024 6.94687 63.9024H2.96875V58.2766H6.94687C7.34056 58.2766 7.71811 58.1202 7.99649 57.8419C8.27486 57.5635 8.43125 57.1859 8.43125 56.7922C8.43125 56.3986 8.27486 56.021 7.99649 55.7426C7.71811 55.4643 7.34056 55.3079 6.94687 55.3079H2.96875V49.6821H6.94687C7.34056 49.6821 7.71811 49.5257 7.99649 49.2473C8.27486 48.9689 8.43125 48.5914 8.43125 48.1977C8.43125 47.804 8.27486 47.4265 7.99649 47.1481C7.71811 46.8697 7.34056 46.7133 6.94687 46.7133H2.96875V41.1024H6.94687C7.34056 41.1024 7.71811 40.946 7.99649 40.6676C8.27486 40.3893 8.43125 40.0117 8.43125 39.618C8.43125 39.2243 8.27486 38.8468 7.99649 38.5684C7.71811 38.29 7.34056 38.1336 6.94687 38.1336H2.96875V32.5079H6.94687C7.34056 32.5079 7.71811 32.3515 7.99649 32.0731C8.27486 31.7947 8.43125 31.4172 8.43125 31.0235C8.43125 30.6298 8.27486 30.2523 7.99649 29.9739C7.71811 29.6955 7.34056 29.5391 6.94687 29.5391H2.96875V23.9133H6.94687C7.34056 23.9133 7.71811 23.7569 7.99649 23.4786C8.27486 23.2002 8.43125 22.8226 8.43125 22.429C8.43125 22.0353 8.27486 21.6577 7.99649 21.3793C7.71811 21.101 7.34056 20.9446 6.94687 20.9446H2.96875V15.3188H6.94687C7.34056 15.3188 7.71811 15.1624 7.99649 14.884C8.27486 14.6057 8.43125 14.2281 8.43125 13.8344C8.43125 13.4407 8.27486 13.0632 7.99649 12.7848C7.71811 12.5064 7.34056 12.35 6.94687 12.35H2.96875V6.32349C2.96875 5.92981 2.81236 5.55225 2.53399 5.27387C2.25561 4.9955 1.87806 4.83911 1.48438 4.83911C1.09069 4.83911 0.713138 4.9955 0.434763 5.27387C0.156389 5.55225 0 5.92981 0 6.32349L0 13.8493V22.429V31.0235V39.6329V48.1977V56.7626V65.3422V73.9071V82.4571V92.6102C0 93.0039 0.156389 93.3814 0.434763 93.6598C0.713138 93.9382 1.09069 94.0946 1.48438 94.0946H87.8898C88.2835 94.0946 88.6611 93.9382 88.9395 93.6598C89.2178 93.3814 89.3742 93.0039 89.3742 92.6102C89.3742 92.2165 89.2178 91.839 88.9395 91.5606C88.6611 91.2822 88.2835 91.1258 87.8898 91.1258V91.2891Z" fill="#F4AC05"/>
<path d="M90.1611 43.3883C89.2264 43.3856 88.311 43.6544 87.5262 44.1622C86.7414 44.67 86.121 45.3949 85.7405 46.2487C85.36 47.1025 85.2357 48.0485 85.3828 48.9716C85.5298 49.8947 85.9419 50.7552 86.5689 51.4485L78.3752 65.3125C78.016 65.2225 77.647 65.1776 77.2768 65.179C76.6619 65.1787 76.0525 65.2945 75.4807 65.5204L67.2572 57.5938C67.492 57.0298 67.6082 56.4234 67.5986 55.8125C67.5986 54.5291 67.0888 53.2983 66.1813 52.3908C65.2738 51.4833 64.043 50.9735 62.7596 50.9735C61.4762 50.9735 60.2453 51.4833 59.3378 52.3908C58.4303 53.2983 57.9205 54.5291 57.9205 55.8125C57.9227 56.4666 58.0591 57.1133 58.3213 57.7125L48.6877 69.2758C47.8691 68.7631 46.9141 68.5113 45.9492 68.5537C44.9842 68.5961 44.055 68.9308 43.2846 69.5133L33.5174 55.6047C33.6367 55.1898 33.6967 54.76 33.6955 54.3282C33.627 53.093 33.0881 51.931 32.1895 51.0809C31.2909 50.2308 30.1009 49.757 28.8639 49.757C27.6268 49.757 26.4368 50.2308 25.5382 51.0809C24.6396 51.931 24.1007 53.093 24.0322 54.3282C24.0161 55.51 24.4453 56.6546 25.2346 57.5344L18.6291 68.3704C18.2699 68.2803 17.9009 68.2355 17.5307 68.2368C16.573 68.2338 15.6359 68.5151 14.8382 69.0451C14.0405 69.575 13.4179 70.3297 13.0494 71.2137C12.6809 72.0976 12.5829 73.0711 12.7679 74.0108C12.953 74.9504 13.4127 75.814 14.0888 76.4923C14.765 77.1705 15.6272 77.6329 16.5663 77.8208C17.5054 78.0087 18.4791 77.9138 19.3642 77.5479C20.2493 77.1821 21.0059 76.5619 21.5383 75.7658C22.0707 74.9697 22.3549 74.0335 22.3549 73.0758C22.363 71.8999 21.9346 70.7627 21.1525 69.8844L27.7283 59.0336C28.0927 59.1228 28.4665 59.1677 28.8416 59.1672C29.8875 59.1651 30.904 58.8211 31.7361 58.1875L41.5627 72.0813C41.4302 72.4988 41.3651 72.9347 41.3697 73.3727C41.3333 74.0297 41.4313 74.6873 41.6576 75.3052C41.884 75.923 42.234 76.4883 42.6862 76.9663C43.1384 77.4443 43.6834 77.825 44.2878 78.0852C44.8922 78.3455 45.5433 78.4797 46.2014 78.4797C46.8594 78.4797 47.5105 78.3455 48.1149 78.0852C48.7193 77.825 49.2643 77.4443 49.7165 76.9663C50.1688 76.4883 50.5188 75.923 50.7451 75.3052C50.9715 74.6873 51.0694 74.0297 51.033 73.3727C51.0381 72.7415 50.917 72.1157 50.6768 71.5321L60.3104 59.9391C61.0564 60.41 61.9219 60.6573 62.8041 60.6516C63.7374 60.6482 64.6499 60.375 65.4315 59.8649L73.2541 67.3907C72.7488 68.1682 72.4807 69.0759 72.4822 70.0032C72.4711 70.7931 72.6536 71.5738 73.0137 72.277C73.3738 72.9802 73.9006 73.5845 74.548 74.0372C75.1955 74.4899 75.944 74.7772 76.7281 74.8739C77.5122 74.9707 78.308 74.874 79.0462 74.5924C79.7843 74.3107 80.4422 73.8525 80.9625 73.258C81.4827 72.6635 81.8495 71.9506 82.0308 71.1816C82.2121 70.4127 82.2023 69.611 82.0023 68.8467C81.8024 68.0824 81.4184 67.3786 80.8838 66.7969L89.0627 52.9329C89.4171 53.0217 89.781 53.0665 90.1463 53.0665C91.4297 53.0665 92.6605 52.5566 93.568 51.6491C94.4755 50.7416 94.9854 49.5108 94.9854 48.2274C94.9854 46.944 94.4755 45.7132 93.568 44.8057C92.6605 43.8982 91.4297 43.3883 90.1463 43.3883H90.1611Z" fill="#F4AC05"/>
<path d="M58.3358 31.5133C57.9795 31.9289 57.5936 32.3594 57.2077 32.7453C56.8188 33.1398 56.4074 33.5115 55.9756 33.8586L55.7381 34.0516L64.7631 44.1008C65.081 44.5167 65.4809 44.8629 65.9378 45.1183C66.3948 45.3736 66.8993 45.5325 67.4202 45.5852H67.5686C67.8886 45.5756 68.203 45.4994 68.4918 45.3613C68.7806 45.2233 69.0375 45.0265 69.2459 44.7836C69.4892 44.5627 69.6856 44.2951 69.8233 43.9967C69.961 43.6984 70.0372 43.3753 70.0475 43.0469C69.9181 41.9933 69.3862 41.0305 68.5631 40.3602L58.5139 31.3648L58.3358 31.5133ZM42.8834 36.0555C46.5314 36.0607 50.0905 34.9297 53.0662 32.8195L53.2889 32.6563C54.0189 32.1245 54.704 31.5337 55.3373 30.8898C58.2187 28.0062 60.011 24.2126 60.4089 20.1556C60.8067 16.0985 59.7855 12.0291 57.5192 8.64059C55.253 5.2521 51.8819 2.75428 47.9803 1.57274C44.0788 0.391198 39.8883 0.59905 36.1229 2.16088C32.3575 3.7227 29.2501 6.54186 27.3302 10.138C25.4104 13.7341 24.7969 17.8847 25.5943 21.8824C26.3917 25.8802 28.5506 29.4777 31.7032 32.0621C34.8558 34.6465 38.8069 36.0578 42.8834 36.0555ZM32.0772 7.61485C34.5695 5.11506 37.8513 3.55666 41.3637 3.20511C44.8761 2.85356 48.4017 3.73061 51.34 5.68686C54.2783 7.64311 56.4474 10.5575 57.478 13.9337C58.5085 17.3098 58.3367 20.9388 56.9918 24.2025C55.6469 27.4662 53.2121 30.1627 50.1021 31.8325C46.9921 33.5024 43.3994 34.0425 39.936 33.3606C36.4725 32.6788 33.3526 30.8173 31.1076 28.0932C28.8627 25.3692 27.6316 21.951 27.6241 18.4211C27.6133 16.4147 28.0014 14.4261 28.7659 12.571C29.5303 10.7158 30.6559 9.03115 32.0772 7.61485Z" fill="#F4AC05"/>
<path d="M51.6264 27.1641C53.3557 25.4348 54.5334 23.2316 55.0106 20.8331C55.4878 18.4345 55.243 15.9483 54.3071 13.6889C53.3713 11.4295 51.7864 9.49828 49.753 8.13957C47.7196 6.78087 45.329 6.05566 42.8834 6.05566C40.4378 6.05566 38.0472 6.78087 36.0138 8.13957C33.9804 9.49828 32.3955 11.4295 31.4597 13.6889C30.5239 15.9483 30.279 18.4345 30.7562 20.8331C31.2334 23.2316 32.4111 25.4348 34.1404 27.1641C35.2826 28.3229 36.6437 29.2431 38.1446 29.8712C39.6455 30.4992 41.2564 30.8227 42.8834 30.8227C44.5105 30.8227 46.1213 30.4992 47.6222 29.8712C49.1231 29.2431 50.4842 28.3229 51.6264 27.1641ZM42.4975 19.2969C40.7459 18.6289 39.1131 17.7086 39.1131 15.675C39.1143 14.8681 39.3988 14.0873 39.917 13.4687C40.4351 12.8502 41.154 12.4332 41.9482 12.2906V10.3906H44.0561V12.1719C44.8351 12.2313 45.5909 12.4646 46.2678 12.8547L46.6092 13.0625L45.7928 15.1555L45.3326 14.8438C44.6778 14.4684 43.935 14.2737 43.1803 14.2797C42.067 14.2797 41.6959 14.8586 41.6959 15.4227C41.6959 15.9867 41.9928 16.3875 43.7443 17.1C44.6165 17.3067 45.3985 17.7899 45.9737 18.4774C46.5488 19.1649 46.8863 20.0199 46.9357 20.9148C46.9266 21.758 46.6259 22.5721 46.0848 23.2187C45.5436 23.8654 44.7954 24.3049 43.967 24.4625V26.4813H41.8147V24.6109C40.8636 24.5422 39.9449 24.236 39.1428 23.7203L38.8459 23.5273L39.6178 21.3898L40.1225 21.7313C40.8571 22.1912 41.705 22.4378 42.5717 22.4438C43.6256 22.4438 44.3381 21.8945 44.3381 21.0781C44.3381 20.5438 44.1154 19.9648 42.4975 19.2969Z" fill="#F4AC05"/>
</g>
<defs>
<clipPath id="clip0_141_6382">
<rect width="95" height="95" fill="white"/>
</clipPath>
</defs>
</svg>
