<svg width="72" height="95" viewBox="0 0 72 95" fill="none" xmlns="http://www.w3.org/2000/svg">
<g clip-path="url(#clip0_141_6449)">
<path fill-rule="evenodd" clip-rule="evenodd" d="M50.6596 30.2026L62.5736 30.2486C62.566 31.8616 62.2447 33.457 61.6286 34.9415C61.0124 36.426 60.1138 37.77 58.9851 38.895C58.4559 39.436 57.8759 39.9223 57.2536 40.3467L50.6237 30.2394L50.6596 30.2026ZM23.9067 29.6146H27.7555C27.8033 29.6133 27.851 29.6219 27.8955 29.6399C27.9401 29.6578 27.9807 29.6847 28.015 29.7189C28.0493 29.7532 28.0765 29.7941 28.0951 29.8393C28.1137 29.8845 28.1233 29.9331 28.1233 29.9821V37.4616C28.1209 37.5599 28.0812 37.6533 28.0124 37.722C27.9437 37.7907 27.8515 37.8291 27.7555 37.8291H23.9067C23.8107 37.8291 23.7185 37.7907 23.6497 37.722C23.581 37.6533 23.5412 37.5599 23.5389 37.4616V29.9821C23.5389 29.9331 23.5484 29.8845 23.567 29.8393C23.5856 29.7941 23.6129 29.7532 23.6471 29.7189C23.6814 29.6847 23.722 29.6578 23.7666 29.6399C23.8112 29.6219 23.8588 29.6133 23.9067 29.6146ZM10.7366 25.5073H14.5854C14.6325 25.5061 14.6794 25.5144 14.7234 25.5317C14.7674 25.5491 14.8076 25.5751 14.8418 25.6084C14.8759 25.6417 14.9034 25.6815 14.9225 25.7257C14.9416 25.7698 14.952 25.8174 14.9532 25.8657V37.4707C14.952 37.519 14.9416 37.5666 14.9225 37.6107C14.9034 37.6548 14.8759 37.6947 14.8418 37.728C14.8076 37.7613 14.7674 37.7873 14.7234 37.8047C14.6794 37.822 14.6325 37.8303 14.5854 37.8291H10.7366C10.6895 37.8303 10.6426 37.822 10.5986 37.8047C10.5546 37.7873 10.5144 37.7613 10.4802 37.728C10.4461 37.6947 10.4186 37.6548 10.3995 37.6107C10.3804 37.5666 10.37 37.519 10.3688 37.4707V25.8657C10.37 25.8174 10.3804 25.7698 10.3995 25.7257C10.4186 25.6815 10.4461 25.6417 10.4802 25.6084C10.5144 25.5751 10.5546 25.5491 10.5986 25.5317C10.6426 25.5144 10.6895 25.5061 10.7366 25.5073ZM17.0346 22.5762H20.8833C20.9312 22.5749 20.9788 22.5835 21.0234 22.6015C21.068 22.6194 21.1086 22.6463 21.1429 22.6805C21.1772 22.7148 21.2044 22.7557 21.223 22.8009C21.2416 22.8461 21.2512 22.8947 21.2512 22.9437V37.4616C21.2488 37.5599 21.209 37.6533 21.1403 37.722C21.0716 37.7907 20.9794 37.8291 20.8833 37.8291H17.0346C16.9867 37.8303 16.9391 37.8217 16.8945 37.8038C16.8499 37.7859 16.8093 37.759 16.775 37.7247C16.7407 37.6905 16.7135 37.6496 16.6949 37.6044C16.6763 37.5592 16.6667 37.5106 16.6668 37.4616V22.9713C16.6655 22.9219 16.6741 22.8727 16.6923 22.8269C16.7104 22.7811 16.7376 22.7396 16.7722 22.7051C16.8067 22.6706 16.8479 22.6438 16.893 22.6263C16.9382 22.6089 16.9864 22.6012 17.0346 22.6037V22.5762ZM10.7994 82.9814C10.5803 82.9815 10.364 82.9303 10.1673 82.8315C9.97046 82.7328 9.79836 82.5892 9.66412 82.4118C9.52989 82.2345 9.43709 82.0279 9.39284 81.8081C9.3486 81.5883 9.35407 81.361 9.40886 81.1437C9.49507 80.8163 9.68599 80.5279 9.95108 80.3247C10.2162 80.1215 10.5402 80.0151 10.8712 80.0227H61.3804C61.5994 80.0222 61.8155 80.0733 62.0121 80.1721C62.2087 80.2709 62.3804 80.4147 62.514 80.5924C62.6476 80.7701 62.7395 80.9769 62.7825 81.1968C62.8255 81.4167 62.8185 81.6437 62.762 81.8604C62.6724 82.1869 62.479 82.4735 62.2126 82.6748C61.9461 82.8762 61.6217 82.9808 61.2907 82.9722L10.7994 82.9814ZM11.0865 72.4238C10.8892 72.4235 10.6942 72.3809 10.5139 72.2989C10.3336 72.217 10.172 72.0973 10.0394 71.9477C9.90683 71.7981 9.8062 71.6218 9.74397 71.43C9.68174 71.2383 9.65927 71.0354 9.678 70.8342C9.72252 70.4575 9.90253 70.1113 10.1829 69.8633C10.4632 69.6152 10.8238 69.4831 11.1942 69.4927H61.192C61.3897 69.4943 61.5849 69.5381 61.7653 69.6211C61.9456 69.7041 62.1071 69.8246 62.2395 69.9749C62.372 70.1252 62.4724 70.3021 62.5346 70.4943C62.5967 70.6866 62.6192 70.8899 62.6005 71.0915C62.554 71.4665 62.3731 71.8105 62.0929 72.0567C61.8128 72.3028 61.4534 72.4337 61.0844 72.4238H11.0865ZM10.6469 61.2874C10.4285 61.2861 10.2133 61.2338 10.0177 61.1344C9.82201 61.0351 9.65105 60.8914 9.51782 60.7142C9.38459 60.5369 9.2926 60.3309 9.24884 60.1118C9.20508 59.8927 9.21072 59.6662 9.26531 59.4497C9.35348 59.1248 9.54548 58.8396 9.81059 58.6397C10.0757 58.4398 10.3986 58.3368 10.7277 58.347H32.2591C32.4775 58.3483 32.6927 58.4006 32.8884 58.4999C33.084 58.5993 33.255 58.743 33.3882 58.9202C33.5214 59.0975 33.6134 59.3035 33.6572 59.5226C33.701 59.7417 33.6953 59.9682 33.6407 60.1847C33.5494 60.5095 33.3554 60.794 33.0891 60.9936C32.8227 61.1932 32.4993 61.2965 32.1694 61.2874H10.6469ZM38.0726 61.2874C37.8542 61.2861 37.639 61.2338 37.4434 61.1344C37.2477 61.0351 37.0768 60.8914 36.9435 60.7142C36.8103 60.5369 36.7183 60.3309 36.6745 60.1118C36.6308 59.8927 36.6364 59.6662 36.691 59.4497C36.7802 59.12 36.9763 58.8313 37.2469 58.6309C37.5176 58.4306 37.8467 58.3304 38.1803 58.347H61.4163C61.6353 58.3465 61.8514 58.3976 62.048 58.4964C62.2446 58.5952 62.4163 58.739 62.5499 58.9167C62.6835 59.0944 62.7754 59.3012 62.8184 59.5211C62.8614 59.741 62.8544 59.9681 62.7979 60.1847C62.7099 60.5129 62.5173 60.8015 62.2507 61.0047C61.9841 61.2078 61.6588 61.3138 61.3266 61.3057L38.0726 61.2874ZM10.6559 51.8967C10.4583 51.8962 10.2629 51.8537 10.0822 51.7718C9.90144 51.6899 9.7393 51.5704 9.60603 51.421C9.47276 51.2715 9.37126 51.0953 9.30798 50.9036C9.24469 50.7118 9.221 50.5087 9.2384 50.3071C9.28484 49.9312 9.46541 49.5862 9.74533 49.3386C10.0252 49.0909 10.3847 48.958 10.7546 48.9656H28.4283C28.6243 48.9663 28.818 49.0083 28.9975 49.0891C29.1769 49.1699 29.3381 49.2876 29.4711 49.4351C29.6041 49.5825 29.706 49.7564 29.7705 49.946C29.835 50.1355 29.8606 50.3366 29.8458 50.5368C29.8052 50.9201 29.6245 51.2734 29.3398 51.5257C29.0552 51.778 28.6879 51.9106 28.3117 51.8967H10.6559Z" fill="#F4AC05"/>
<path fill-rule="evenodd" clip-rule="evenodd" d="M10.6018 14.9497C10.2419 14.9205 9.90591 14.7534 9.66089 14.4818C9.41586 14.2102 9.27979 13.8539 9.27979 13.4841C9.27979 13.1143 9.41586 12.7581 9.66089 12.4865C9.90591 12.2148 10.2419 12.0478 10.6018 12.0186H21.224C21.584 12.0478 21.9199 12.2148 22.165 12.4865C22.41 12.7581 22.5461 13.1143 22.5461 13.4841C22.5461 13.8539 22.41 14.2102 22.165 14.4818C21.9199 14.7534 21.584 14.9205 21.224 14.9497H10.6018ZM49.7353 15.3724L50.3363 27.4828L62.1517 26.6467C61.8239 23.5306 60.3736 20.6516 58.0843 18.5719C55.795 16.4923 52.831 15.3613 49.7711 15.3999L49.7353 15.3724ZM48.0486 29.8443L54.4363 41.1737C52.8074 42.1373 50.9908 42.7206 49.1163 42.8819C47.2417 43.0432 45.3556 42.7785 43.5925 42.1068C41.8294 41.4351 40.2329 40.3729 38.9171 38.9961C37.6012 37.6192 36.5985 35.9618 35.9805 34.1421C35.3624 32.3224 35.1444 30.3854 35.342 28.4694C35.5395 26.5534 36.1477 24.7058 37.1232 23.0584C38.0986 21.4111 39.4173 20.0047 40.9849 18.9397C42.5525 17.8747 44.3304 17.1774 46.1915 16.8977L48.0486 29.8443Z" fill="#F4AC05"/>
<path d="M64.5112 95H7.48875C5.63677 95 3.86052 94.2471 2.55013 92.9068C1.23974 91.5664 0.502377 89.7481 0.5 87.8513L0.5 7.15785C0.5 5.25947 1.23631 3.43884 2.54696 2.09649C3.8576 0.754128 5.63522 0 7.48875 0L64.5112 0C65.429 0 66.3378 0.185143 67.1857 0.544859C68.0336 0.904574 68.8041 1.43182 69.453 2.09649C70.102 2.76115 70.6168 3.55023 70.968 4.41866C71.3192 5.28709 71.5 6.21787 71.5 7.15785V87.8513C71.4976 89.7481 70.7603 91.5664 69.4499 92.9068C68.1395 94.2471 66.3632 95 64.5112 95ZM7.48875 3.5192C6.537 3.5192 5.62424 3.90643 4.95125 4.5957C4.27826 5.28497 3.90018 6.21983 3.90018 7.1946V87.8513C3.90018 88.8261 4.27826 89.761 4.95125 90.4502C5.62424 91.1395 6.537 91.5267 7.48875 91.5267H64.5112C65.463 91.5267 66.3758 91.1395 67.0488 90.4502C67.7217 89.761 68.0998 88.8261 68.0998 87.8513V7.15785C68.0998 6.18307 67.7217 5.24822 67.0488 4.55895C66.3758 3.86967 65.463 3.48245 64.5112 3.48245L7.48875 3.5192Z" fill="#F4AC05"/>
</g>
<defs>
<clipPath id="clip0_141_6449">
<rect width="71" height="95" fill="white" transform="translate(0.5)"/>
</clipPath>
</defs>
</svg>
