<svg width="115" height="115" viewBox="0 0 115 115" fill="none" xmlns="http://www.w3.org/2000/svg">
<path d="M57.5 23.3594C56.3859 23.3594 55.7031 22.7772 55.7031 22.4609H52.1094C52.161 23.4623 52.5409 24.4189 53.1904 25.1827C53.84 25.9466 54.723 26.4753 55.7031 26.6872V28.75H59.2969V26.6872C60.277 26.4753 61.16 25.9466 61.8096 25.1827C62.4591 24.4189 62.839 23.4623 62.8906 22.4609C62.8333 21.8114 62.6482 21.1796 62.3459 20.6018C62.0436 20.024 61.6301 19.5116 61.1292 19.0942C60.6282 18.6767 60.0497 18.3624 59.4269 18.1693C58.8041 17.9761 58.1492 17.908 57.5 17.9688C56.3859 17.9688 55.7031 17.3866 55.7031 17.0703C55.7031 16.7541 56.3859 16.1719 57.5 16.1719C58.6141 16.1719 59.2969 16.7541 59.2969 17.0703H62.8906C62.839 16.0689 62.4591 15.1124 61.8096 14.3485C61.16 13.5846 60.277 13.0559 59.2969 12.8441V10.7812H55.7031V12.8441C54.723 13.0559 53.84 13.5846 53.1904 14.3485C52.5409 15.1124 52.161 16.0689 52.1094 17.0703C52.1667 17.7199 52.3518 18.3517 52.6541 18.9295C52.9564 19.5073 53.3699 20.0196 53.8708 20.4371C54.3718 20.8545 54.9503 21.1688 55.5731 21.362C56.1959 21.5551 56.8508 21.6233 57.5 21.5625C58.6141 21.5625 59.2969 22.1447 59.2969 22.4609C59.2969 22.7772 58.6141 23.3594 57.5 23.3594ZM57.5 88.0469C56.4338 88.0469 55.3916 88.363 54.5051 88.9554C53.6186 89.5477 52.9277 90.3896 52.5197 91.3746C52.1117 92.3596 52.005 93.4435 52.213 94.4892C52.421 95.5348 52.9344 96.4954 53.6883 97.2492C54.4421 98.0031 55.4027 98.5165 56.4483 98.7245C57.494 98.9325 58.5779 98.8258 59.5629 98.4178C60.5479 98.0098 61.3898 97.3189 61.9821 96.4324C62.5745 95.5459 62.8906 94.5037 62.8906 93.4375C62.8906 92.0078 62.3227 90.6367 61.3117 89.6258C60.3008 88.6148 58.9297 88.0469 57.5 88.0469ZM57.5 95.2344C57.1446 95.2344 56.7972 95.129 56.5017 94.9315C56.2062 94.7341 55.9759 94.4535 55.8399 94.1251C55.7039 93.7968 55.6683 93.4355 55.7377 93.0869C55.807 92.7384 55.9781 92.4182 56.2294 92.1669C56.4807 91.9156 56.8009 91.7445 57.1494 91.6751C57.498 91.6058 57.8593 91.6414 58.1876 91.7774C58.516 91.9134 58.7966 92.1437 58.9941 92.4392C59.1915 92.7347 59.2969 93.0821 59.2969 93.4375C59.2969 93.9141 59.1076 94.3711 58.7706 94.7081C58.4336 95.0451 57.9766 95.2344 57.5 95.2344Z" fill="#F4AC05"/>
<path d="M107.73 35.3985C107.615 35.0337 107.387 34.715 107.079 34.4888C106.77 34.2626 106.398 34.1406 106.016 34.1406H91.6405C91.3134 34.1432 90.9934 34.236 90.7157 34.4088C90.4379 34.5816 90.2133 34.8277 90.0664 35.1199C85.9323 29.1295 80.2318 24.3899 73.5873 21.4188C73.8111 19.237 73.5889 17.0325 72.934 14.9394C72.2791 12.8462 71.2054 10.9082 69.778 9.24305C68.3506 7.57792 66.5994 6.22054 64.6309 5.25344C62.6625 4.28634 60.5178 3.72975 58.3275 3.61751C56.1372 3.50526 53.9469 3.83972 51.8899 4.60053C49.8329 5.36134 47.9522 6.53261 46.362 8.0431C44.7719 9.5536 43.5056 11.3718 42.6402 13.387C41.7748 15.4022 41.3284 17.5724 41.328 19.7656C41.3277 20.3208 41.3565 20.8756 41.4143 21.4277C33.18 25.1275 26.4461 31.5136 22.3153 39.5402L21.0359 38.2609C20.6989 37.924 20.242 37.7348 19.7655 37.7348C19.289 37.7348 18.8321 37.924 18.4951 38.2609L7.71387 49.0421L4.12012 52.6359L6.6609 55.1767L7.18738 54.6502V71.875C7.18738 72.3516 7.3767 72.8086 7.71368 73.1456C8.05066 73.4826 8.5077 73.6719 8.98426 73.6719H21.4618C25.1338 81.8868 31.5116 88.5944 39.5311 92.6756V95.2344C39.5313 95.6597 39.6824 96.0712 39.9575 96.3956C40.2325 96.72 40.6138 96.9364 41.0333 97.0061L45.7052 97.7859C45.819 98.0974 45.9448 98.4029 46.0825 98.7024L43.3279 102.557C43.0805 102.903 42.964 103.326 42.9992 103.75C43.0344 104.174 43.219 104.572 43.5202 104.873L46.061 107.414C46.3616 107.714 46.7592 107.899 47.1829 107.934C47.6067 107.969 48.0292 107.853 48.3754 107.606L52.2314 104.851C52.5309 104.99 52.8364 105.117 53.1479 105.23L53.9277 109.902C53.9972 110.323 54.2139 110.705 54.5391 110.98C54.8643 111.256 55.2768 111.407 55.703 111.406H59.2968C59.7218 111.406 60.1331 111.255 60.4575 110.981C60.7819 110.706 60.9983 110.325 61.0685 109.906L61.8483 105.234C62.1598 105.114 62.4652 104.988 62.7647 104.855L66.6208 107.609C66.967 107.856 67.3895 107.973 67.8132 107.937C68.237 107.902 68.6345 107.718 68.9352 107.417L71.476 104.876C71.7771 104.576 71.9618 104.178 71.997 103.754C72.0322 103.329 71.9157 102.907 71.6682 102.56L68.9136 98.7024C69.0526 98.4017 69.179 98.0962 69.2928 97.7859L73.9646 97.0061C74.3845 96.9367 74.7662 96.7206 75.0416 96.3961C75.317 96.0717 75.4684 95.66 75.4686 95.2344V92.6756C83.4882 88.5944 89.8659 81.8868 93.538 73.6719H107.812C108.289 73.6719 108.746 73.4826 109.083 73.1456C109.42 72.8086 109.609 72.3516 109.609 71.875V69.2264C109.607 67.5466 108.939 65.9362 107.751 64.7485C106.564 63.5607 104.953 62.8925 103.273 62.8906H100.625V51.7788C101.238 51.5598 101.807 51.2303 102.301 50.8067C103.35 51.6599 104.664 52.1206 106.016 52.1094C107.348 52.1961 108.661 51.7544 109.67 50.8799C110.679 50.0055 111.303 48.7687 111.406 47.4375C111.406 47.2547 111.378 47.0729 111.323 46.8985L107.73 35.3985ZM100.625 46.7188C100.625 47.1953 100.436 47.6524 100.099 47.9893C99.7616 48.3263 99.3046 48.5156 98.828 48.5156C98.3514 48.5156 97.8944 48.3263 97.5574 47.9893C97.2204 47.6524 97.0311 47.1953 97.0311 46.7188V37.7344H100.625V46.7188ZM93.4374 37.7344V47.4375C93.4374 47.946 92.6683 48.5156 91.6405 48.5156C91.2911 48.5498 90.9392 48.4834 90.6262 48.3242C90.3133 48.165 90.0523 47.9197 89.8742 47.6172L92.9612 37.7344H93.4374ZM57.4999 7.18751C59.9876 7.18751 62.4195 7.92521 64.4879 9.30731C66.5564 10.6894 68.1685 12.6538 69.1206 14.9522C70.0726 17.2505 70.3217 19.7796 69.8363 22.2195C69.351 24.6594 68.153 26.9006 66.394 28.6597C64.6349 30.4188 62.3937 31.6167 59.9538 32.1021C57.5138 32.5874 54.9848 32.3383 52.6864 31.3863C50.3881 30.4343 48.4237 28.8221 47.0416 26.7537C45.6595 24.6852 44.9218 22.2534 44.9218 19.7656C44.9256 16.4309 46.252 13.2338 48.61 10.8758C50.968 8.51773 54.1651 7.19132 57.4999 7.18751ZM19.7655 42.072L26.2091 48.5156H13.3219L19.7655 42.072ZM10.7811 52.1094H28.7499V70.0781H10.7811V52.1094ZM71.8749 93.7124L67.6181 94.4312C67.2776 94.4888 66.9609 94.6434 66.706 94.8763C66.451 95.1093 66.2686 95.4108 66.1806 95.7447C65.9758 96.5198 65.6675 97.2638 65.2642 97.9566C65.09 98.2559 65.006 98.5991 65.0222 98.945C65.0385 99.2909 65.1543 99.6247 65.3558 99.9063L67.8714 103.417L67.4815 103.805L63.9704 101.29C63.689 101.089 63.3555 100.973 63.01 100.957C62.6645 100.941 62.3217 101.024 62.0226 101.198C61.3288 101.602 60.5835 101.91 59.8071 102.115C59.4735 102.203 59.1724 102.386 58.9398 102.64C58.7072 102.895 58.5529 103.212 58.4954 103.552L57.7766 107.811H57.2268L56.517 103.552C56.4595 103.212 56.3052 102.895 56.0726 102.64C55.84 102.386 55.5389 102.203 55.2053 102.115C54.4288 101.91 53.6836 101.602 52.9897 101.198C52.6907 101.024 52.3478 100.941 52.0023 100.957C51.6568 100.973 51.3233 101.089 51.0419 101.29L47.5308 103.805L47.1409 103.417L49.6565 99.9063C49.858 99.6247 49.9739 99.2909 49.9901 98.945C50.0064 98.5991 49.9224 98.2559 49.7482 97.9566C49.3448 97.2638 49.0366 96.5198 48.8318 95.7447C48.7437 95.4108 48.5613 95.1093 48.3064 94.8763C48.0514 94.6434 47.7348 94.4888 47.3943 94.4312L43.1249 93.7124V93.1626L47.3817 92.4438C47.7222 92.3862 48.0388 92.2316 48.2938 91.9987C48.5487 91.7657 48.7311 91.4642 48.8192 91.1303C49.024 90.3552 49.3322 89.6112 49.7356 88.9184C49.9098 88.6191 49.9938 88.2759 49.9775 87.93C49.9613 87.5842 49.8454 87.2504 49.6439 86.9688L47.1283 83.4577L47.5182 83.0695L51.0293 85.5852C51.3107 85.7863 51.6442 85.9019 51.9897 85.9182C52.3352 85.9344 52.6781 85.8506 52.9771 85.6768C53.671 85.2729 54.4163 84.9647 55.1927 84.7604C55.5263 84.6721 55.8274 84.4895 56.06 84.2346C56.2926 83.9797 56.4469 83.6632 56.5044 83.3229L57.225 79.0625H57.7748L58.4936 83.3211C58.5511 83.6614 58.7054 83.9779 58.938 84.2328C59.1706 84.4877 59.4717 84.6703 59.8053 84.7586C60.5817 84.9629 61.327 85.2711 62.0208 85.675C62.3199 85.8488 62.6627 85.9326 63.0082 85.9164C63.3538 85.9001 63.6872 85.7845 63.9686 85.5834L67.4797 83.0677L67.8696 83.4559L65.354 86.967C65.1525 87.2486 65.0367 87.5824 65.0204 87.9282C65.0042 88.2741 65.0882 88.6173 65.2624 88.9166C65.6658 89.6094 65.974 90.3534 66.1788 91.1285C66.2668 91.4625 66.4492 91.7639 66.7042 91.9969C66.9591 92.2298 67.2758 92.3844 67.6163 92.442L71.8731 93.1608L71.8749 93.7124ZM106.016 69.2264V70.0781H91.6405V69.2264C91.6415 68.4995 91.9307 67.8026 92.4447 67.2886C92.9587 66.7745 93.6556 66.4853 94.3825 66.4844H103.273C104 66.4853 104.697 66.7745 105.211 67.2886C105.725 67.8026 106.015 68.4995 106.016 69.2264ZM94.3825 62.8906C92.7028 62.8925 91.0923 63.5607 89.9046 64.7485C88.7168 65.9362 88.0487 67.5466 88.0468 69.2264V71.875C88.0499 72.305 88.209 72.7193 88.4945 73.0409C88.7801 73.3624 89.1726 73.5694 89.5993 73.6234C86.0895 80.6441 80.3659 86.314 73.3124 89.7575L69.3 89.0891C69.1802 88.7776 69.0538 88.4721 68.9208 88.1727L71.6754 84.3184C71.9229 83.9721 72.0394 83.5492 72.0042 83.125C71.969 82.7009 71.7843 82.303 71.4832 82.0022L68.9424 79.4614C68.6417 79.1607 68.2442 78.9764 67.8204 78.9412C67.3967 78.906 66.9742 79.0222 66.628 79.2692L62.7647 82.0238C62.4641 81.8848 62.1586 81.759 61.8483 81.6464L61.0685 76.9745C60.9995 76.5543 60.7835 76.1722 60.459 75.8965C60.1345 75.6207 59.7226 75.4691 59.2968 75.4688H55.703C55.2779 75.4689 54.8667 75.6197 54.5423 75.8944C54.2179 76.1691 54.0014 76.5499 53.9313 76.9692L53.1514 81.641C52.8412 81.7536 52.5357 81.8794 52.235 82.0184L48.3789 79.2638C48.0328 79.0168 47.6103 78.9006 47.1865 78.9358C46.7628 78.971 46.3652 79.1553 46.0646 79.456L43.5238 81.9968C43.2226 82.2976 43.038 82.6955 43.0028 83.1196C42.9676 83.5438 43.0841 83.9667 43.3315 84.313L46.0861 88.1673C45.9484 88.468 45.8226 88.7734 45.7088 89.0837L41.6946 89.7521C34.6556 86.3196 28.939 80.67 25.4239 73.6719H30.5468C31.0233 73.6719 31.4804 73.4826 31.8173 73.1456C32.1543 72.8086 32.3436 72.3516 32.3436 71.875V54.6502L32.8701 55.1767L35.4109 52.6359L31.8172 49.0421L24.998 42.2266C28.5799 34.6702 34.6675 28.587 42.2264 25.0107C43.3163 28.1994 45.3761 30.9673 48.1176 32.9267C50.8591 34.8862 54.1448 35.939 57.5145 35.9379C60.8843 35.9367 64.1692 34.8815 66.9093 32.9201C69.6494 30.9587 71.7073 28.1893 72.7949 24.9999C79.4327 28.1329 84.9576 33.2152 88.6325 39.569L86.3325 46.8985C86.2777 47.0729 86.2498 47.2547 86.2499 47.4375C86.3534 48.7687 86.9772 50.0055 87.9862 50.8799C88.9952 51.7544 90.3081 52.1961 91.6405 52.1094C92.9924 52.1206 94.3059 51.6599 95.3547 50.8067C95.8499 51.2297 96.418 51.5591 97.0311 51.7788V62.8906H94.3825ZM106.016 48.5156C104.988 48.5156 104.219 47.946 104.219 47.4375V37.7344H104.695L107.782 47.6172C107.604 47.9197 107.343 48.165 107.03 48.3242C106.717 48.4834 106.365 48.5498 106.016 48.5156Z" fill="#F4AC05"/>
<path d="M48 48L69 69" stroke="#F4AC05" stroke-width="3" stroke-linecap="round"/>
<path d="M69 48L48 69" stroke="#F4AC05" stroke-width="3" stroke-linecap="round"/>
</svg>
