<svg width="115" height="115" viewBox="0 0 115 115" fill="none" xmlns="http://www.w3.org/2000/svg">
<path d="M70.0782 41.3282H44.9219C43.0157 41.3282 41.1875 40.5709 39.8396 39.223C38.4917 37.8751 37.7344 36.0469 37.7344 34.1407V23.3594C37.733 23.1229 37.7784 22.8885 37.8678 22.6696C37.9572 22.4506 38.089 22.2515 38.2555 22.0836L47.2399 13.0992C47.4078 12.9327 47.6069 12.801 47.8258 12.7115C48.0447 12.6221 48.2792 12.5768 48.5157 12.5782H70.0782C71.9844 12.5782 73.8126 13.3354 75.1605 14.6833C76.5084 16.0312 77.2657 17.8594 77.2657 19.7657V34.1407C77.2657 36.0469 76.5084 37.8751 75.1605 39.223C73.8126 40.5709 71.9844 41.3282 70.0782 41.3282ZM41.3282 24.0961V34.1407C41.3282 35.0938 41.7068 36.0079 42.3807 36.6818C43.0547 37.3558 43.9688 37.7344 44.9219 37.7344H70.0782C71.0313 37.7344 71.9454 37.3558 72.6193 36.6818C73.2933 36.0079 73.6719 35.0938 73.6719 34.1407V19.7657C73.6719 18.8125 73.2933 17.8984 72.6193 17.2245C71.9454 16.5505 71.0313 16.1719 70.0782 16.1719H49.2524L41.3282 24.0961Z" fill="#F4AC05"/>
<path d="M64.6875 25.1562H50.3125C49.8359 25.1562 49.3789 24.9669 49.0419 24.63C48.7049 24.293 48.5156 23.8359 48.5156 23.3594C48.5156 22.8828 48.7049 22.4258 49.0419 22.0888C49.3789 21.7518 49.8359 21.5625 50.3125 21.5625H64.6875C65.1641 21.5625 65.6211 21.7518 65.9581 22.0888C66.2951 22.4258 66.4844 22.8828 66.4844 23.3594C66.4844 23.8359 66.2951 24.293 65.9581 24.63C65.6211 24.9669 65.1641 25.1562 64.6875 25.1562ZM64.6875 32.3438H50.3125C49.8359 32.3438 49.3789 32.1544 49.0419 31.8175C48.7049 31.4805 48.5156 31.0234 48.5156 30.5469C48.5156 30.0703 48.7049 29.6133 49.0419 29.2763C49.3789 28.9393 49.8359 28.75 50.3125 28.75H64.6875C65.1641 28.75 65.6211 28.9393 65.9581 29.2763C66.2951 29.6133 66.4844 30.0703 66.4844 30.5469C66.4844 31.0234 66.2951 31.4805 65.9581 31.8175C65.6211 32.1544 65.1641 32.3438 64.6875 32.3438ZM64.6875 77.2656H50.3125C48.8828 77.2656 47.5117 76.6977 46.5008 75.6867C45.4898 74.6758 44.9219 73.3047 44.9219 71.875V64.6875C44.9219 63.2578 45.4898 61.8867 46.5008 60.8758C47.5117 59.8648 48.8828 59.2969 50.3125 59.2969H64.6875C66.1172 59.2969 67.4883 59.8648 68.4992 60.8758C69.5102 61.8867 70.0781 63.2578 70.0781 64.6875V71.875C70.0781 73.3047 69.5102 74.6758 68.4992 75.6867C67.4883 76.6977 66.1172 77.2656 64.6875 77.2656ZM50.3125 62.8906C49.8359 62.8906 49.3789 63.0799 49.0419 63.4169C48.7049 63.7539 48.5156 64.2109 48.5156 64.6875V71.875C48.5156 72.3516 48.7049 72.8086 49.0419 73.1456C49.3789 73.4826 49.8359 73.6719 50.3125 73.6719H64.6875C65.1641 73.6719 65.6211 73.4826 65.9581 73.1456C66.2951 72.8086 66.4844 72.3516 66.4844 71.875V64.6875C66.4844 64.2109 66.2951 63.7539 65.9581 63.4169C65.6211 63.0799 65.1641 62.8906 64.6875 62.8906H50.3125ZM97.0312 77.2656H82.6562C81.2266 77.2656 79.8554 76.6977 78.8445 75.6867C77.8336 74.6758 77.2656 73.3047 77.2656 71.875V64.6875C77.2656 63.2578 77.8336 61.8867 78.8445 60.8758C79.8554 59.8648 81.2266 59.2969 82.6562 59.2969H97.0312C98.4609 59.2969 99.8321 59.8648 100.843 60.8758C101.854 61.8867 102.422 63.2578 102.422 64.6875V71.875C102.422 73.3047 101.854 74.6758 100.843 75.6867C99.8321 76.6977 98.4609 77.2656 97.0312 77.2656ZM82.6562 62.8906C82.1797 62.8906 81.7226 63.0799 81.3857 63.4169C81.0487 63.7539 80.8594 64.2109 80.8594 64.6875V71.875C80.8594 72.3516 81.0487 72.8086 81.3857 73.1456C81.7226 73.4826 82.1797 73.6719 82.6562 73.6719H97.0312C97.5078 73.6719 97.9649 73.4826 98.3018 73.1456C98.6388 72.8086 98.8281 72.3516 98.8281 71.875V64.6875C98.8281 64.2109 98.6388 63.7539 98.3018 63.4169C97.9649 63.0799 97.5078 62.8906 97.0312 62.8906H82.6562ZM32.3438 77.2656H17.9688C16.5391 77.2656 15.1679 76.6977 14.157 75.6867C13.1461 74.6758 12.5781 73.3047 12.5781 71.875V64.6875C12.5781 63.2578 13.1461 61.8867 14.157 60.8758C15.1679 59.8648 16.5391 59.2969 17.9688 59.2969H32.3438C33.7734 59.2969 35.1446 59.8648 36.1555 60.8758C37.1664 61.8867 37.7344 63.2578 37.7344 64.6875V71.875C37.7344 73.3047 37.1664 74.6758 36.1555 75.6867C35.1446 76.6977 33.7734 77.2656 32.3438 77.2656ZM17.9688 62.8906C17.4922 62.8906 17.0351 63.0799 16.6982 63.4169C16.3612 63.7539 16.1719 64.2109 16.1719 64.6875V71.875C16.1719 72.3516 16.3612 72.8086 16.6982 73.1456C17.0351 73.4826 17.4922 73.6719 17.9688 73.6719H32.3438C32.8203 73.6719 33.2774 73.4826 33.6143 73.1456C33.9513 72.8086 34.1406 72.3516 34.1406 71.875V64.6875C34.1406 64.2109 33.9513 63.7539 33.6143 63.4169C33.2774 63.0799 32.8203 62.8906 32.3438 62.8906H17.9688ZM64.6875 102.422H50.3125C48.8828 102.422 47.5117 101.854 46.5008 100.843C45.4898 99.8321 44.9219 98.4609 44.9219 97.0312V89.8438C44.9219 88.4141 45.4898 87.0429 46.5008 86.032C47.5117 85.0211 48.8828 84.4531 50.3125 84.4531H64.6875C66.1172 84.4531 67.4883 85.0211 68.4992 86.032C69.5102 87.0429 70.0781 88.4141 70.0781 89.8438V97.0312C70.0781 98.4609 69.5102 99.8321 68.4992 100.843C67.4883 101.854 66.1172 102.422 64.6875 102.422ZM50.3125 88.0469C49.8359 88.0469 49.3789 88.2362 49.0419 88.5732C48.7049 88.9101 48.5156 89.3672 48.5156 89.8438V97.0312C48.5156 97.5078 48.7049 97.9649 49.0419 98.3018C49.3789 98.6388 49.8359 98.8281 50.3125 98.8281H64.6875C65.1641 98.8281 65.6211 98.6388 65.9581 98.3018C66.2951 97.9649 66.4844 97.5078 66.4844 97.0312V89.8438C66.4844 89.3672 66.2951 88.9101 65.9581 88.5732C65.6211 88.2362 65.1641 88.0469 64.6875 88.0469H50.3125ZM97.0312 102.422H82.6562C81.2266 102.422 79.8554 101.854 78.8445 100.843C77.8336 99.8321 77.2656 98.4609 77.2656 97.0312V89.8438C77.2656 88.4141 77.8336 87.0429 78.8445 86.032C79.8554 85.0211 81.2266 84.4531 82.6562 84.4531H91.6406C92.1172 84.4531 92.5742 84.6424 92.9112 84.9794C93.2482 85.3164 93.4375 85.7734 93.4375 86.25C93.4375 86.7266 93.2482 87.1836 92.9112 87.5206C92.5742 87.8576 92.1172 88.0469 91.6406 88.0469H82.6562C82.1797 88.0469 81.7226 88.2362 81.3857 88.5732C81.0487 88.9101 80.8594 89.3672 80.8594 89.8438V97.0312C80.8594 97.5078 81.0487 97.9649 81.3857 98.3018C81.7226 98.6388 82.1797 98.8281 82.6562 98.8281H97.0312C97.5078 98.8281 97.9649 98.6388 98.3018 98.3018C98.6388 97.9649 98.8281 97.5078 98.8281 97.0312V91.6406C98.8281 91.1641 99.0174 90.707 99.3544 90.37C99.6914 90.0331 100.148 89.8438 100.625 89.8438C101.102 89.8438 101.559 90.0331 101.896 90.37C102.233 90.707 102.422 91.1641 102.422 91.6406V97.0312C102.422 98.4609 101.854 99.8321 100.843 100.843C99.8321 101.854 98.4609 102.422 97.0312 102.422ZM32.3438 102.422H17.9688C16.5391 102.422 15.1679 101.854 14.157 100.843C13.1461 99.8321 12.5781 98.4609 12.5781 97.0312V89.8438C12.5781 88.4141 13.1461 87.0429 14.157 86.032C15.1679 85.0211 16.5391 84.4531 17.9688 84.4531H32.3438C33.7734 84.4531 35.1446 85.0211 36.1555 86.032C37.1664 87.0429 37.7344 88.4141 37.7344 89.8438V97.0312C37.7344 98.4609 37.1664 99.8321 36.1555 100.843C35.1446 101.854 33.7734 102.422 32.3438 102.422ZM17.9688 88.0469C17.4922 88.0469 17.0351 88.2362 16.6982 88.5732C16.3612 88.9101 16.1719 89.3672 16.1719 89.8438V97.0312C16.1719 97.5078 16.3612 97.9649 16.6982 98.3018C17.0351 98.6388 17.4922 98.8281 17.9688 98.8281H32.3438C32.8203 98.8281 33.2774 98.6388 33.6143 98.3018C33.9513 97.9649 34.1406 97.5078 34.1406 97.0312V89.8438C34.1406 89.3672 33.9513 88.9101 33.6143 88.5732C33.2774 88.2362 32.8203 88.0469 32.3438 88.0469H17.9688Z" fill="#F4AC05"/>
<path d="M89.8438 62.8906C89.3672 62.8906 88.9101 62.7013 88.5732 62.3643C88.2362 62.0274 88.0469 61.5703 88.0469 61.0938V55.7031C88.0469 54.75 87.6683 53.8359 86.9943 53.162C86.3203 52.488 85.4062 52.1094 84.4531 52.1094H30.5469C29.5938 52.1094 28.6797 52.488 28.0057 53.162C27.3318 53.8359 26.9531 54.75 26.9531 55.7031V61.0938C26.9531 61.5703 26.7638 62.0274 26.4268 62.3643C26.0899 62.7013 25.6328 62.8906 25.1562 62.8906C24.6797 62.8906 24.2226 62.7013 23.8857 62.3643C23.5487 62.0274 23.3594 61.5703 23.3594 61.0938V55.7031C23.3594 53.7969 24.1166 51.9687 25.4645 50.6208C26.8125 49.2729 28.6406 48.5156 30.5469 48.5156H84.4531C86.3594 48.5156 88.1875 49.2729 89.5355 50.6208C90.8834 51.9687 91.6406 53.7969 91.6406 55.7031V61.0938C91.6406 61.5703 91.4513 62.0274 91.1143 62.3643C90.7774 62.7013 90.3203 62.8906 89.8438 62.8906Z" fill="#F4AC05"/>
<path d="M57.5 62.8906C57.0234 62.8906 56.5664 62.7013 56.2294 62.3643C55.8924 62.0274 55.7031 61.5703 55.7031 61.0938V39.5312C55.7031 39.0547 55.8924 38.5976 56.2294 38.2607C56.5664 37.9237 57.0234 37.7344 57.5 37.7344C57.9766 37.7344 58.4336 37.9237 58.7706 38.2607C59.1076 38.5976 59.2969 39.0547 59.2969 39.5312V61.0938C59.2969 61.5703 59.1076 62.0274 58.7706 62.3643C58.4336 62.7013 57.9766 62.8906 57.5 62.8906ZM25.1562 88.0469C24.6797 88.0469 24.2226 87.8576 23.8857 87.5206C23.5487 87.1836 23.3594 86.7266 23.3594 86.25V75.4688C23.3594 74.9922 23.5487 74.5351 23.8857 74.1982C24.2226 73.8612 24.6797 73.6719 25.1562 73.6719C25.6328 73.6719 26.0899 73.8612 26.4268 74.1982C26.7638 74.5351 26.9531 74.9922 26.9531 75.4688V86.25C26.9531 86.7266 26.7638 87.1836 26.4268 87.5206C26.0899 87.8576 25.6328 88.0469 25.1562 88.0469ZM79.0625 95.2344H68.2812C67.8047 95.2344 67.3476 95.0451 67.0107 94.7081C66.6737 94.3711 66.4844 93.9141 66.4844 93.4375C66.4844 92.9609 66.6737 92.5039 67.0107 92.1669C67.3476 91.8299 67.8047 91.6406 68.2812 91.6406H79.0625C79.5391 91.6406 79.9961 91.8299 80.3331 92.1669C80.6701 92.5039 80.8594 92.9609 80.8594 93.4375C80.8594 93.9141 80.6701 94.3711 80.3331 94.7081C79.9961 95.0451 79.5391 95.2344 79.0625 95.2344ZM46.7188 95.2344H35.9375C35.4609 95.2344 35.0039 95.0451 34.6669 94.7081C34.3299 94.3711 34.1406 93.9141 34.1406 93.4375C34.1406 92.9609 34.3299 92.5039 34.6669 92.1669C35.0039 91.8299 35.4609 91.6406 35.9375 91.6406H46.7188C47.1953 91.6406 47.6524 91.8299 47.9893 92.1669C48.3263 92.5039 48.5156 92.9609 48.5156 93.4375C48.5156 93.9141 48.3263 94.3711 47.9893 94.7081C47.6524 95.0451 47.1953 95.2344 46.7188 95.2344ZM88.9453 97.9297C88.7088 97.9311 88.4744 97.8857 88.2555 97.7963C88.0366 97.7069 87.8374 97.5751 87.6695 97.4086L83.1773 92.9164C82.839 92.578 82.6489 92.1191 82.6489 91.6406C82.6489 91.1621 82.839 90.7032 83.1773 90.3648C83.5157 90.0265 83.9746 89.8364 84.4531 89.8364C84.9316 89.8364 85.3905 90.0265 85.7289 90.3648L88.9453 93.5992L99.3492 83.1773C99.6876 82.839 100.146 82.6489 100.625 82.6489C101.104 82.6489 101.562 82.839 101.901 83.1773C102.239 83.5157 102.429 83.9746 102.429 84.4531C102.429 84.9316 102.239 85.3905 101.901 85.7289L90.2211 97.4086C90.0532 97.5751 89.8541 97.7069 89.6351 97.7963C89.4162 97.8857 89.1818 97.9311 88.9453 97.9297Z" fill="#F4AC05"/>
</svg>
