<svg width="109" height="109" viewBox="0 0 109 109" fill="none" xmlns="http://www.w3.org/2000/svg">
<path d="M17.8194 57.0978H60.0024C60.4541 57.0978 60.8873 56.9184 61.2066 56.599C61.526 56.2796 61.7055 55.8464 61.7055 55.3947C61.7055 54.943 61.526 54.5098 61.2066 54.1904C60.8873 53.871 60.4541 53.6916 60.0024 53.6916H19.5293V21.9998C19.5293 21.5481 19.3499 21.1149 19.0305 20.7955C18.7111 20.4761 18.2779 20.2967 17.8262 20.2967C17.3745 20.2967 16.9413 20.4761 16.6219 20.7955C16.3025 21.1149 16.123 21.5481 16.123 21.9998V55.3947C16.123 55.8452 16.3015 56.2774 16.6195 56.5966C16.9374 56.9158 17.3688 57.096 17.8194 57.0978ZM72.8757 30.9832H91.6396C92.0913 30.9832 92.5245 30.8038 92.8439 30.4844C93.1633 30.165 93.3427 29.7318 93.3427 29.2801C93.3427 28.8284 93.1633 28.3952 92.8439 28.0758C92.5245 27.7564 92.0913 27.577 91.6396 27.577H72.8757C72.424 27.577 71.9908 27.7564 71.6714 28.0758C71.352 28.3952 71.1726 28.8284 71.1726 29.2801C71.1726 29.7318 71.352 30.165 71.6714 30.4844C71.9908 30.8038 72.424 30.9832 72.8757 30.9832ZM72.8757 40.4072H91.6396C92.0913 40.4072 92.5245 40.2278 92.8439 39.9084C93.1633 39.589 93.3427 39.1558 93.3427 38.7041C93.3427 38.2524 93.1633 37.8192 92.8439 37.4998C92.5245 37.1804 92.0913 37.0009 91.6396 37.0009H72.8757C72.424 37.0009 71.9908 37.1804 71.6714 37.4998C71.352 37.8192 71.1726 38.2524 71.1726 38.7041C71.1726 39.1558 71.352 39.589 71.6714 39.9084C71.9908 40.2278 72.424 40.4072 72.8757 40.4072ZM72.8757 49.8312H91.6396C92.0913 49.8312 92.5245 49.6517 92.8439 49.3323C93.1633 49.0129 93.3427 48.5797 93.3427 48.128C93.3427 47.6763 93.1633 47.2431 92.8439 46.9237C92.5245 46.6043 92.0913 46.4249 91.6396 46.4249H72.8757C72.424 46.4249 71.9908 46.6043 71.6714 46.9237C71.352 47.2431 71.1726 47.6763 71.1726 48.128C71.1726 48.5797 71.352 49.0129 71.6714 49.3323C71.9908 49.6517 72.424 49.8312 72.8757 49.8312Z" fill="#F4AC05"/>
<path d="M24.389 50.6873C24.8336 50.6878 25.2607 50.5141 25.5789 50.2036L36.8014 39.2582L42.1446 43.2003C42.4838 43.4512 42.9041 43.5669 43.3239 43.525C43.7436 43.483 44.1327 43.2863 44.4155 42.9733L58.2948 27.5861V29.1371C58.2948 29.5888 58.4742 30.022 58.7936 30.3414C59.113 30.6608 59.5462 30.8402 59.9979 30.8402C60.4496 30.8402 60.8828 30.6608 61.2022 30.3414C61.5216 30.022 61.701 29.5888 61.701 29.1371V23.1625C61.701 22.7108 61.5216 22.2776 61.2022 21.9582C60.8828 21.6388 60.4496 21.4594 59.9979 21.4594H53.2921C52.8404 21.4594 52.4072 21.6388 52.0879 21.9582C51.7685 22.2776 51.589 22.7108 51.589 23.1625C51.589 23.6142 51.7685 24.0474 52.0879 24.3668C52.4072 24.6862 52.8404 24.8656 53.2921 24.8656H56.1693L42.919 39.5443L37.6597 35.6521C37.3343 35.4128 36.9346 35.2967 36.5316 35.3245C36.1286 35.3524 35.7486 35.5224 35.4593 35.8042L23.1968 47.7602C22.9544 47.9965 22.7879 48.2998 22.7186 48.6312C22.6494 48.9626 22.6805 49.3071 22.8079 49.6208C22.9354 49.9345 23.1534 50.203 23.4342 50.3922C23.7151 50.5813 24.0459 50.6825 24.3844 50.6827L24.389 50.6873Z" fill="#F4AC05"/>
<path d="M103.55 5.12982H5.45C4.00411 5.13343 2.61859 5.71003 1.59704 6.73328C0.575488 7.75654 0.00119742 9.14301 0 10.5889L0 74.3221C0.00119547 75.7682 0.575413 77.1549 1.5969 78.1786C2.61839 79.2022 4.0039 79.7793 5.45 79.7835H103.55C104.996 79.7793 106.382 79.2022 107.403 78.1786C108.425 77.1549 108.999 75.7682 109 74.3221V10.5889C108.999 9.14301 108.425 7.75654 107.403 6.73328C106.381 5.71003 104.996 5.13343 103.55 5.12982ZM105.594 74.3221C105.594 74.8652 105.379 75.3862 104.996 75.7713C104.613 76.1564 104.093 76.3742 103.55 76.3772H5.45C4.90692 76.3742 4.38711 76.1564 4.00416 75.7713C3.6212 75.3862 3.40624 74.8652 3.40625 74.3221V10.5889C3.40625 10.0469 3.62157 9.52703 4.00485 9.14376C4.38813 8.76048 4.90796 8.54516 5.45 8.54516H103.55C104.092 8.54516 104.612 8.76048 104.995 9.14376C105.378 9.52703 105.594 10.0469 105.594 10.5889V74.3221Z" fill="#F4AC05"/>
<path d="M100.316 11.6289H8.68359C8.2319 11.6289 7.7987 11.8084 7.4793 12.1278C7.1599 12.4472 6.98047 12.8804 6.98047 13.3321V65.1911C6.98047 65.6428 7.1599 66.076 7.4793 66.3954C7.7987 66.7148 8.2319 66.8942 8.68359 66.8942H100.316C100.768 66.8942 101.201 66.7148 101.521 66.3954C101.84 66.076 102.019 65.6428 102.019 65.1911V13.3321C102.019 12.8804 101.84 12.4472 101.521 12.1278C101.201 11.8084 100.768 11.6289 100.316 11.6289ZM98.6131 63.488H10.3867V15.0352H98.6131V63.488ZM72.8755 94.1987H65.627L64.4689 83.7302C64.4192 83.2812 64.1932 82.8703 63.8406 82.588C63.488 82.3056 63.0376 82.1749 62.5886 82.2246C62.1396 82.2743 61.7288 82.5003 61.4464 82.8529C61.1641 83.2055 61.0334 83.6559 61.0831 84.1049L62.4092 96.0903C62.4556 96.507 62.6541 96.892 62.9667 97.1715C63.2793 97.451 63.684 97.6053 64.1033 97.605H71.1792V100.464H37.8275V97.605H44.9034C45.3227 97.6053 45.7274 97.451 46.04 97.1715C46.3525 96.892 46.551 96.507 46.5974 96.0903L47.9236 84.1049C47.9482 83.8825 47.9288 83.6576 47.8664 83.4427C47.8041 83.2279 47.7 83.0275 47.5602 82.8529C47.4204 82.6783 47.2476 82.533 47.0516 82.4252C46.8556 82.3174 46.6403 82.2492 46.418 82.2246C45.969 82.1749 45.5187 82.3056 45.1661 82.588C44.8135 82.8703 44.5875 83.2812 44.5378 83.7302L43.3797 94.1987H36.113C35.6613 94.1987 35.2281 94.3782 34.9087 94.6975C34.5893 95.0169 34.4099 95.4501 34.4099 95.9018V102.167C34.4099 102.619 34.5893 103.052 34.9087 103.371C35.2281 103.691 35.6613 103.87 36.113 103.87H72.8755C73.3272 103.87 73.7604 103.691 74.0798 103.371C74.3992 103.052 74.5786 102.619 74.5786 102.167V95.9018C74.5786 95.4501 74.3992 95.0169 74.0798 94.6975C73.7604 94.3782 73.3272 94.1987 72.8755 94.1987Z" fill="#F4AC05"/>
</svg>
