<svg width="109" height="109" viewBox="0 0 109 109" fill="none" xmlns="http://www.w3.org/2000/svg">
<path d="M27.25 30.6562C21.6161 30.6562 17.0312 26.0714 17.0312 20.4375C17.0312 14.8036 21.6161 10.2188 27.25 10.2188C32.8839 10.2188 37.4688 14.8036 37.4688 20.4375C37.4688 26.0714 32.8839 30.6562 27.25 30.6562ZM27.25 13.625C23.4929 13.625 20.4375 16.6804 20.4375 20.4375C20.4375 24.1946 23.4929 27.25 27.25 27.25C31.0071 27.25 34.0625 24.1946 34.0625 20.4375C34.0625 16.6804 31.0071 13.625 27.25 13.625ZM18.7344 105.594C18.2827 105.594 17.8495 105.414 17.5301 105.095C17.2107 104.776 17.0312 104.342 17.0312 103.891V86.8594C17.0312 86.4077 17.2107 85.9745 17.5301 85.6551C17.8495 85.3357 18.2827 85.1562 18.7344 85.1562C19.1861 85.1562 19.6193 85.3357 19.9387 85.6551C20.2581 85.9745 20.4375 86.4077 20.4375 86.8594V103.891C20.4375 104.342 20.2581 104.776 19.9387 105.095C19.6193 105.414 19.1861 105.594 18.7344 105.594ZM11.9219 71.5312C11.4702 71.5312 11.037 71.3518 10.7176 71.0324C10.3982 70.713 10.2188 70.2798 10.2188 69.8281V45.9844C10.2188 40.4731 14.6843 34.0625 20.4375 34.0625H35.7656C36.2173 34.0625 36.6505 34.2419 36.9699 34.5613C37.2893 34.8807 37.4688 35.3139 37.4688 35.7656C37.4688 36.2173 37.2893 36.6505 36.9699 36.9699C36.6505 37.2893 36.2173 37.4688 35.7656 37.4688H20.4375C16.769 37.4688 13.625 42.1523 13.625 45.9844V69.8281C13.625 70.2798 13.4456 70.713 13.1262 71.0324C12.8068 71.3518 12.3736 71.5312 11.9219 71.5312Z" fill="#F4AC05"/>
<path d="M17.0312 81.75H6.8125C4.93566 81.75 3.40625 80.224 3.40625 78.3438V71.5312C3.40625 69.651 4.93566 68.125 6.8125 68.125H17.0312C18.9081 68.125 20.4375 69.651 20.4375 71.5312V78.3438C20.4375 80.224 18.9081 81.75 17.0312 81.75ZM6.8125 71.5312V78.3438H17.0312V71.5312H6.8125ZM88.5625 30.6562C82.9286 30.6562 78.3438 26.0714 78.3438 20.4375C78.3438 14.8036 82.9286 10.2188 88.5625 10.2188C94.1964 10.2188 98.7812 14.8036 98.7812 20.4375C98.7812 26.0714 94.1964 30.6562 88.5625 30.6562ZM88.5625 13.625C84.8054 13.625 81.75 16.6804 81.75 20.4375C81.75 24.1946 84.8054 27.25 88.5625 27.25C92.3196 27.25 95.375 24.1946 95.375 20.4375C95.375 16.6804 92.3196 13.625 88.5625 13.625ZM100.484 105.594C100.033 105.594 99.5995 105.414 99.2801 105.095C98.9607 104.776 98.7812 104.342 98.7812 103.891V69.8281C98.7812 69.3764 98.9607 68.9432 99.2801 68.6238C99.5995 68.3044 100.033 68.125 100.484 68.125C100.936 68.125 101.369 67.9456 101.689 67.6262C102.008 67.3068 102.188 66.8736 102.188 66.4219V45.9844C102.188 42.1523 99.0435 37.4688 95.375 37.4688H80.0469C79.5952 37.4688 79.162 37.2893 78.8426 36.9699C78.5232 36.6505 78.3438 36.2173 78.3438 35.7656C78.3438 35.3139 78.5232 34.8807 78.8426 34.5613C79.162 34.2419 79.5952 34.0625 80.0469 34.0625H95.375C101.128 34.0625 105.594 40.4731 105.594 45.9844V66.4219C105.594 68.6427 104.17 70.5366 102.188 71.2383V103.891C102.188 104.342 102.008 104.776 101.689 105.095C101.369 105.414 100.936 105.594 100.484 105.594ZM81.75 81.75H76.6406C76.1889 81.75 75.7557 81.5706 75.4363 81.2512C75.1169 80.9318 74.9375 80.4986 74.9375 80.0469C74.9375 79.5952 75.1169 79.162 75.4363 78.8426C75.7557 78.5232 76.1889 78.3438 76.6406 78.3438H81.75V71.5312H76.6406C76.1889 71.5312 75.7557 71.3518 75.4363 71.0324C75.1169 70.713 74.9375 70.2798 74.9375 69.8281C74.9375 69.3764 75.1169 68.9432 75.4363 68.6238C75.7557 68.3044 76.1889 68.125 76.6406 68.125H81.75C83.6268 68.125 85.1562 69.651 85.1562 71.5312V78.3438C85.1562 80.224 83.6268 81.75 81.75 81.75Z" fill="#F4AC05"/>
<path d="M57.9062 23.8438C52.2723 23.8438 47.6875 19.2589 47.6875 13.625C47.6875 7.99106 52.2723 3.40625 57.9062 3.40625C63.5402 3.40625 68.125 7.99106 68.125 13.625C68.125 19.2589 63.5402 23.8438 57.9062 23.8438ZM57.9062 6.8125C54.1492 6.8125 51.0938 9.86791 51.0938 13.625C51.0938 17.3821 54.1492 20.4375 57.9062 20.4375C61.6633 20.4375 64.7188 17.3821 64.7188 13.625C64.7188 9.86791 61.6633 6.8125 57.9062 6.8125ZM90.2656 105.594C89.8139 105.594 89.3807 105.414 89.0613 105.095C88.7419 104.776 88.5625 104.342 88.5625 103.891V80.0469C88.5625 79.5952 88.7419 79.162 89.0613 78.8426C89.3807 78.5232 89.8139 78.3438 90.2656 78.3438C90.7173 78.3438 91.1505 78.5232 91.4699 78.8426C91.7893 79.162 91.9688 79.5952 91.9688 80.0469V103.891C91.9688 104.342 91.7893 104.776 91.4699 105.095C91.1505 105.414 90.7173 105.594 90.2656 105.594ZM28.9531 105.594C28.5014 105.594 28.0682 105.414 27.7488 105.095C27.4294 104.776 27.25 104.342 27.25 103.891V80.0469C27.25 79.5952 27.4294 79.162 27.7488 78.8426C28.0682 78.5232 28.5014 78.3438 28.9531 78.3438C29.4048 78.3438 29.838 78.5232 30.1574 78.8426C30.4768 79.162 30.6562 79.5952 30.6562 80.0469V103.891C30.6562 104.342 30.4768 104.776 30.1574 105.095C29.838 105.414 29.4048 105.594 28.9531 105.594ZM49.3906 105.594C48.9389 105.594 48.5057 105.414 48.1863 105.095C47.8669 104.776 47.6875 104.342 47.6875 103.891V83.4531C47.6875 83.0014 47.8669 82.5682 48.1863 82.2488C48.5057 81.9294 48.9389 81.75 49.3906 81.75C49.8423 81.75 50.2755 81.9294 50.5949 82.2488C50.9143 82.5682 51.0938 83.0014 51.0938 83.4531V103.891C51.0938 104.342 50.9143 104.776 50.5949 105.095C50.2755 105.414 49.8423 105.594 49.3906 105.594ZM69.8281 105.594C69.3764 105.594 68.9432 105.414 68.6238 105.095C68.3044 104.776 68.125 104.342 68.125 103.891V66.4219C68.125 65.9702 68.3044 65.537 68.6238 65.2176C68.9432 64.8982 69.3764 64.7188 69.8281 64.7188C70.2798 64.7188 70.713 64.5393 71.0324 64.2199C71.3518 63.9005 71.5312 63.4673 71.5312 63.0156V39.1719C71.5312 35.3398 68.3873 30.6562 64.7188 30.6562H51.0938C47.4252 30.6562 44.0667 35.3773 43.8929 39.2434L42.5781 66.5036C42.5674 66.7271 42.5127 66.9462 42.4173 67.1485C42.3219 67.3508 42.1876 67.5324 42.022 67.6828C41.8564 67.8332 41.6628 67.9495 41.4523 68.0251C41.2417 68.1007 41.0184 68.134 40.795 68.1233C40.5715 68.1126 40.3524 68.0579 40.1501 67.9625C39.9478 67.8671 39.7662 67.7327 39.6158 67.5672C39.4654 67.4016 39.3491 67.208 39.2735 66.9975C39.1979 66.7869 39.1645 66.5636 39.1753 66.3401L40.4935 39.0833C40.7422 33.5005 45.3338 27.25 51.0938 27.25H64.7188C70.4719 27.25 74.9375 33.6606 74.9375 39.1719V63.0156C74.9375 65.2365 73.5137 67.1304 71.5312 67.8321V103.891C71.5312 104.342 71.3518 104.776 71.0324 105.095C70.713 105.414 70.2798 105.594 69.8281 105.594Z" fill="#F4AC05"/>
<path d="M59.6094 105.594C59.1577 105.594 58.7245 105.414 58.4051 105.095C58.0857 104.776 57.9062 104.342 57.9062 103.891V73.2344C57.9062 72.7827 58.0857 72.3495 58.4051 72.0301C58.7245 71.7107 59.1577 71.5312 59.6094 71.5312C60.0611 71.5312 60.4943 71.7107 60.8137 72.0301C61.1331 72.3495 61.3125 72.7827 61.3125 73.2344V103.891C61.3125 104.342 61.1331 104.776 60.8137 105.095C60.4943 105.414 60.0611 105.594 59.6094 105.594ZM47.6875 78.3438H37.4688C35.5919 78.3438 34.0625 76.8177 34.0625 74.9375V68.125C34.0625 66.2448 35.5919 64.7188 37.4688 64.7188H47.6875C49.5643 64.7188 51.0938 66.2448 51.0938 68.125V74.9375C51.0938 76.8177 49.5643 78.3438 47.6875 78.3438ZM37.4688 68.125V74.9375H47.6841L47.6875 68.125H37.4688Z" fill="#F4AC05"/>
</svg>
