<svg width="109" height="99" viewBox="0 0 109 99" fill="none" xmlns="http://www.w3.org/2000/svg">
<path d="M56.5596 45.3832H78.0875V49.4843C75.6997 50.2147 73.958 52.439 73.958 55.0629C73.958 58.279 76.5745 60.8955 79.7906 60.8955C83.0067 60.8955 85.6232 58.279 85.6232 55.0629C85.6232 52.439 83.8815 50.2149 81.4937 49.4843V45.3832H103.022C106.318 45.3832 109 42.7014 109 39.405V2.10678C109 1.16623 108.237 0.403656 107.297 0.403656H52.2845C51.3439 0.403656 50.5814 1.16623 50.5814 2.10678V39.405C50.5814 42.7014 53.2629 45.3832 56.5596 45.3832ZM82.2169 55.0629C82.2169 56.4007 81.1284 57.4892 79.7906 57.4892C78.4528 57.4892 77.3643 56.4007 77.3643 55.0629C77.3643 53.7249 78.4528 52.6364 79.7906 52.6364C81.1284 52.6364 82.2169 53.7249 82.2169 55.0629ZM103.022 41.9769H56.5596C55.1415 41.9769 53.9876 40.8231 53.9876 39.405V9.52176H105.594V39.405C105.594 40.8231 104.44 41.9769 103.022 41.9769ZM105.594 3.80991V6.11551H53.9876V3.80991H105.594ZM3.59237 47.3924H45.3434C46.284 47.3924 47.0465 46.6299 47.0465 45.6893V37.8656C47.0465 36.925 46.284 36.1625 45.3434 36.1625H42.0543C41.4005 29.361 36.8755 23.6762 30.7144 21.3397C32.8695 19.5451 34.2442 16.8433 34.2442 13.826C34.2442 8.43581 29.8586 4.05026 24.468 4.05026C19.0776 4.05026 14.6921 8.43581 14.6921 13.826C14.6921 16.8433 16.0665 19.5449 18.2216 21.3395C12.0607 23.676 7.53553 29.3608 6.88175 36.1625H3.59237C2.65182 36.1625 1.88925 36.925 1.88925 37.8656V45.6893C1.88925 46.6299 2.65182 47.3924 3.59237 47.3924ZM18.0983 13.826C18.0983 10.3139 20.9557 7.45651 24.468 7.45651C27.9803 7.45651 30.8379 10.3139 30.8379 13.826C30.8379 17.337 27.9824 20.1935 24.472 20.1957C24.4708 20.1957 24.4693 20.1957 24.4678 20.1957C24.4665 20.1957 24.465 20.1957 24.4637 20.1957C20.9534 20.1933 18.0983 17.3368 18.0983 13.826ZM24.4637 23.6019C24.465 23.6019 24.4665 23.6019 24.468 23.6019C24.4693 23.6019 24.4708 23.6019 24.472 23.6019C31.7587 23.604 37.7818 29.0992 38.6265 36.1625H10.3095C11.1542 29.099 17.1774 23.604 24.4637 23.6019ZM5.2955 39.5687H43.6403V43.9862H5.2955V39.5687ZM28.5889 82.2897C27.1764 81.232 25.6436 80.3979 24.0271 79.7965C26.2857 77.9501 27.7305 75.1436 27.7305 72.0056C27.7305 66.4581 23.2173 61.9448 17.6698 61.9448C12.122 61.9448 7.60877 66.4581 7.60877 72.0056C7.60877 75.1438 9.05366 77.9501 11.3122 79.7965C9.69595 80.3979 8.16292 81.232 6.75039 82.2897C3.68541 84.5849 1.37661 87.8536 0.249565 91.4934C-0.272868 93.1801 0.0251788 94.9582 1.06749 96.372C2.10959 97.7856 3.7199 98.5963 5.48561 98.5963H29.8535C31.6192 98.5963 33.2297 97.7854 34.2718 96.3718C35.3141 94.958 35.6122 93.1801 35.0898 91.4934C33.9625 87.8534 31.6539 84.5849 28.5889 82.2897ZM11.0152 72.0056C11.0152 68.3364 14.0004 65.351 17.67 65.351C21.3391 65.351 24.3245 68.3362 24.3245 72.0056C24.3245 75.6735 21.3417 78.6578 17.6744 78.6601C17.673 78.6601 17.6713 78.6601 17.6698 78.6601C17.6683 78.6601 17.6668 78.6601 17.6653 78.6601C13.998 78.6576 11.0152 75.6735 11.0152 72.0056ZM31.53 94.3508C31.1368 94.8843 30.5256 95.1902 29.8535 95.1902H5.48604C4.81394 95.1902 4.20294 94.8843 3.80974 94.351C3.41631 93.8175 3.30497 93.1433 3.5036 92.5012C5.43579 86.2612 11.1266 82.0685 17.6653 82.0666C17.6668 82.0666 17.6685 82.0666 17.67 82.0666C17.6715 82.0666 17.673 82.0666 17.6744 82.0666C24.213 82.0687 29.9037 86.2614 31.8361 92.5012C32.035 93.1433 31.9234 93.8175 31.53 94.3508ZM65.419 82.2897C64.0065 81.232 62.4737 80.3979 60.8572 79.7965C63.1157 77.9499 64.5606 75.1436 64.5606 72.0056C64.5606 66.4581 60.0473 61.9448 54.4998 61.9448C48.9523 61.9448 44.4391 66.4581 44.4391 72.0056C44.4391 75.1436 45.8839 77.9499 48.1425 79.7965C46.526 80.3979 44.993 81.232 43.5805 82.2899C40.5157 84.5849 38.2069 87.8536 37.0796 91.4936C36.5572 93.1803 36.8553 94.9582 37.8976 96.372C38.9397 97.7858 40.5502 98.5965 42.3159 98.5965H66.6836C68.4495 98.5965 70.0598 97.7856 71.1021 96.372C72.1442 94.9582 72.4421 93.1801 71.9196 91.4936C70.7926 87.8534 68.484 84.5851 65.419 82.2897ZM47.8455 72.0056C47.8455 68.3364 50.8307 65.351 54.5001 65.351C58.1694 65.351 61.1546 68.3362 61.1546 72.0056C61.1546 75.6735 58.1718 78.6578 54.5045 78.6601C54.503 78.6601 54.5013 78.6601 54.4998 78.6601C54.4984 78.6601 54.4969 78.6601 54.4954 78.6601C50.8283 78.6576 47.8455 75.6735 47.8455 72.0056ZM68.3601 94.3508C67.9669 94.8843 67.3557 95.1902 66.6836 95.1902H42.3161C41.644 95.1902 41.0328 94.8841 40.6396 94.3508C40.2462 93.8175 40.1348 93.1433 40.3335 92.5012C42.2659 86.2612 47.9566 82.0685 54.4954 82.0666C54.4969 82.0666 54.4986 82.0666 54.5001 82.0666C54.5015 82.0666 54.503 82.0666 54.5045 82.0666C61.043 82.0687 66.7338 86.2614 68.666 92.5014C68.8648 93.1433 68.7533 93.8175 68.3601 94.3508ZM108.75 91.4936C107.623 87.8534 105.314 84.5851 102.249 82.2899C100.837 81.2323 99.3035 80.3982 97.6873 79.7967C99.9458 77.9503 101.391 75.1438 101.391 72.0058C101.391 66.4583 96.8774 61.945 91.3299 61.945C85.7824 61.945 81.2693 66.4583 81.2693 72.0058C81.2693 75.1438 82.7142 77.9503 84.9728 79.7967C83.3565 80.3982 81.8235 81.2323 80.4108 82.2899C77.346 84.5849 75.0372 87.8536 73.9099 91.4936C73.3875 93.1803 73.6855 94.9582 74.7279 96.372C75.77 97.7858 77.3805 98.5965 79.1462 98.5965H103.514C105.279 98.5965 106.89 97.7856 107.932 96.3722C108.974 94.9584 109.272 93.1803 108.75 91.4936ZM84.6756 72.0056C84.6756 68.3364 87.6605 65.351 91.3299 65.351C94.9993 65.351 97.9845 68.3362 97.9845 72.0056C97.9845 75.6735 95.0016 78.6576 91.3346 78.6601C91.3331 78.6601 91.3316 78.6601 91.3301 78.6601C91.3286 78.6601 91.3271 78.6601 91.3257 78.6601C87.6582 78.6576 84.6756 75.6735 84.6756 72.0056ZM105.19 94.351C104.797 94.8845 104.186 95.1902 103.514 95.1902H79.1462C78.4741 95.1902 77.8629 94.8841 77.4697 94.3508C77.0762 93.8175 76.9649 93.1433 77.1635 92.5012C79.0959 86.2612 84.7867 82.0685 91.3252 82.0666C91.3267 82.0666 91.3282 82.0666 91.3297 82.0666C91.3312 82.0666 91.3327 82.0666 91.3342 82.0666C97.8729 82.0685 103.563 86.2614 105.496 92.5012C105.695 93.1433 105.583 93.8175 105.19 94.351ZM69.3143 13.1271C62.5888 13.1271 57.1173 18.5986 57.1173 25.324C57.1173 32.0494 62.5888 37.5209 69.3143 37.5209C76.0397 37.5209 81.511 32.0494 81.511 25.324C81.511 18.5986 76.0397 13.1271 69.3143 13.1271ZM77.9385 23.6247L71.0174 23.6217V16.7004C74.502 17.3874 77.2527 20.1395 77.9385 23.6247ZM60.5236 25.324C60.5236 21.0596 63.5764 17.4958 67.6111 16.7004V25.324C67.6111 25.6276 67.6922 25.9254 67.8462 26.187L72.2155 33.6206C71.3065 33.9395 70.3306 34.1149 69.3143 34.1149C64.467 34.1147 60.5236 30.1713 60.5236 25.324ZM75.1498 31.8908L72.2917 27.0286L77.9372 27.0309C77.5584 28.9468 76.5555 30.6401 75.1498 31.8908ZM100.273 17.5688C100.273 18.5094 99.5102 19.2719 98.5697 19.2719H87.9C86.9595 19.2719 86.1969 18.5094 86.1969 17.5688C86.1969 16.6283 86.9595 15.8657 87.9 15.8657H98.5697C99.5102 15.8657 100.273 16.6283 100.273 17.5688ZM100.273 33.0794C100.273 34.0199 99.5102 34.7825 98.5697 34.7825H87.9C86.9595 34.7825 86.1969 34.0199 86.1969 33.0794C86.1969 32.1388 86.9595 31.3763 87.9 31.3763H98.5697C99.5102 31.3763 100.273 32.1388 100.273 33.0794ZM100.273 25.324C100.273 26.2645 99.5102 27.0271 98.5697 27.0271H87.9C86.9595 27.0271 86.1969 26.2645 86.1969 25.324C86.1969 24.3834 86.9595 23.6209 87.9 23.6209H98.5697C99.5102 23.6209 100.273 24.3834 100.273 25.324Z" fill="#F4AC05"/>
</svg>
