<svg width="109" height="109" viewBox="0 0 109 109" fill="none" xmlns="http://www.w3.org/2000/svg">
<path d="M83.3509 12.6031H51.2981C50.3784 12.6031 49.6461 13.3355 49.6461 14.2551C49.6461 15.1748 50.3784 15.9072 51.2981 15.9072H83.3509C84.2706 15.9072 85.003 15.1748 85.003 14.2551C85.003 13.3355 84.2706 12.6031 83.3509 12.6031ZM37.8945 12.6031H35.0162C34.0965 12.6031 33.3642 13.3355 33.3642 14.2551C33.3642 15.1748 34.0965 15.9072 35.0162 15.9072H37.8945C38.8142 15.9072 39.5465 15.1748 39.5465 14.2551C39.5465 13.3355 38.8142 12.6031 37.8945 12.6031ZM27.6758 12.6031H24.7975C23.8778 12.6031 23.1454 13.3355 23.1454 14.2551C23.1454 15.1748 23.8778 15.9072 24.7975 15.9072H27.6758C28.5954 15.9072 29.3278 15.1748 29.3278 14.2551C29.3278 13.3355 28.5784 12.6031 27.6758 12.6031ZM17.44 12.6031H14.5617C13.642 12.6031 12.9097 13.3355 12.9097 14.2551C12.9097 15.1748 13.642 15.9072 14.5617 15.9072H17.44C18.3597 15.9072 19.092 15.1748 19.092 14.2551C19.092 13.3355 18.3426 12.6031 17.44 12.6031Z" fill="#F4AC05"/>
<path d="M97.9127 70.1177V21.2039C97.9127 21.1869 97.9127 21.1869 97.9127 21.1869V21.1699V10.6445C97.9127 7.90251 95.6816 5.67142 92.9395 5.67142H4.97312C2.23109 5.67142 0 7.90251 0 10.6445V21.1528C0 21.1699 0 21.1869 0 21.1869V21.2209V85.7864C0 88.5285 2.23109 90.7595 4.97312 90.7595H75.2952C77.3219 97.9978 83.947 103.329 91.8155 103.329C101.285 103.329 108.983 95.6305 108.983 86.1611C109 78.8377 104.385 72.5872 97.9127 70.1177ZM3.30406 10.6445C3.30406 9.72485 4.05344 8.97548 4.97312 8.97548H92.9395C93.8592 8.97548 94.6086 9.72485 94.6086 10.6445V19.5349H3.30406V10.6445ZM74.7161 87.4725H4.97312C4.05344 87.4725 3.30406 86.7231 3.30406 85.8035V22.8389H94.5916V69.232C93.6889 69.0788 92.7692 68.9936 91.8155 68.9936C82.3461 68.9936 74.648 76.6917 74.648 86.1611C74.648 86.6039 74.682 87.0297 74.7161 87.4725ZM91.8325 100.025C84.1855 100.025 77.9691 93.8081 77.9691 86.1611C77.9691 78.5141 84.1855 72.2977 91.8325 72.2977C99.4795 72.2977 105.696 78.5141 105.696 86.1611C105.696 93.8081 99.4795 100.025 91.8325 100.025Z" fill="#F4AC05"/>
<path d="M95.7499 86.2803C95.4433 85.9738 95.0857 85.7183 94.6769 85.4969C94.2852 85.2925 93.8765 85.1052 93.4507 84.9519C93.0419 84.7986 92.6332 84.6453 92.2244 84.492C91.8327 84.3558 91.4751 84.1855 91.1515 84.0152C90.8279 83.8448 90.5894 83.6234 90.3851 83.385C90.1977 83.1466 90.0955 82.84 90.0955 82.4823C90.0955 82.2609 90.1296 82.0395 90.2147 81.8522C90.2999 81.6648 90.4362 81.4945 90.6065 81.3583C90.7768 81.222 91.0152 81.1198 91.2877 81.0347C91.5772 80.9666 91.9008 80.9155 92.3096 80.9155C92.7354 80.9155 93.1441 80.9666 93.5018 81.0687C93.8594 81.1709 94.183 81.2731 94.4555 81.3923C94.728 81.5116 94.9665 81.6138 95.1538 81.7159C95.3412 81.8181 95.4944 81.8692 95.5796 81.8692C95.6307 81.8692 95.6818 81.8522 95.7158 81.8352C95.7499 81.8011 95.784 81.75 95.818 81.6819C95.8521 81.5967 95.8691 81.4945 95.8862 81.3412C95.9032 81.188 95.9032 81.0006 95.9032 80.7622C95.9032 80.5919 95.9032 80.4386 95.8862 80.3023C95.8862 80.1661 95.8691 80.0639 95.8521 79.9617C95.8351 79.8595 95.801 79.7914 95.7669 79.7233C95.7329 79.6552 95.6818 79.587 95.6136 79.5359C95.5455 79.4678 95.4263 79.3997 95.273 79.3145C95.1027 79.2294 94.9154 79.1612 94.711 79.0931C94.5066 79.025 94.2852 78.9569 94.0468 78.9058C93.8083 78.8547 93.5869 78.8036 93.3655 78.7866L93.5869 76.6236C93.5869 76.5384 93.5699 76.4703 93.5529 76.4022C93.5358 76.3341 93.4847 76.283 93.3996 76.2319C93.3144 76.1978 93.1952 76.1637 93.0419 76.1297C92.8887 76.1127 92.6843 76.0956 92.4629 76.0956C92.2585 76.0956 92.1052 76.0956 91.986 76.1127C91.8668 76.1297 91.7646 76.1467 91.6965 76.1808C91.6283 76.2148 91.5772 76.2489 91.5432 76.3C91.5091 76.3341 91.4921 76.3852 91.4921 76.4533L91.2707 78.7525C90.6065 78.8206 90.0104 78.9739 89.4994 79.1953C88.9715 79.4167 88.5457 79.6892 88.188 80.0469C87.8304 80.4045 87.5579 80.8133 87.3705 81.2731C87.1832 81.733 87.081 82.2609 87.081 82.823C87.081 83.4531 87.1662 83.9981 87.3535 84.4409C87.5408 84.8838 87.7963 85.2584 88.1029 85.582C88.4094 85.8886 88.7671 86.1611 89.1588 86.3655C89.5505 86.5869 89.9593 86.7572 90.368 86.9275C90.7768 87.0808 91.1855 87.2341 91.5772 87.3703C91.969 87.5066 92.3266 87.6769 92.6332 87.8472C92.9397 88.0175 93.1952 88.2389 93.3826 88.4603C93.5699 88.6987 93.6551 88.9883 93.6551 89.363C93.6551 89.908 93.4336 90.3508 93.0079 90.6744C92.5821 90.998 91.9179 91.1683 91.0152 91.1683C90.4532 91.1683 89.9422 91.1172 89.5335 90.998C89.1077 90.8787 88.7501 90.7595 88.4605 90.6233C88.171 90.487 87.9155 90.3678 87.7282 90.2486C87.5408 90.1294 87.3876 90.0783 87.3024 90.0783C87.2343 90.0783 87.1661 90.0953 87.098 90.1294C87.0469 90.1634 86.9958 90.2316 86.9618 90.3167C86.9277 90.4019 86.8936 90.5381 86.8766 90.7084C86.8596 90.8787 86.8596 91.0831 86.8596 91.3386C86.8596 91.6792 86.8766 91.9177 86.9107 92.105C86.9447 92.2753 87.0129 92.4116 87.098 92.4967C87.1832 92.5819 87.3194 92.667 87.4897 92.7692C87.6601 92.8544 87.8644 92.9566 88.1029 93.0417C88.3413 93.1269 88.5968 93.212 88.8863 93.2802C89.1758 93.3483 89.4824 93.4164 89.806 93.4505L89.5676 95.7667C89.5505 95.8519 89.5505 95.92 89.5846 95.9881C89.6186 96.0563 89.6698 96.1073 89.7549 96.1584C89.8401 96.1925 89.9593 96.2266 90.0955 96.2606C90.2488 96.2777 90.4362 96.2947 90.6746 96.2947C90.8619 96.2947 91.0152 96.2777 91.1515 96.2606C91.2707 96.2436 91.3729 96.2095 91.441 96.1925C91.5091 96.1584 91.5602 96.1244 91.5943 96.0733C91.6283 96.0222 91.6454 95.9711 91.6454 95.92L91.8838 93.4845C92.6162 93.4164 93.2804 93.2802 93.8765 93.0588C94.4726 92.8373 94.9835 92.5308 95.4093 92.1391C95.8351 91.7644 96.1586 91.3045 96.3971 90.7766C96.6355 90.2486 96.7377 89.6695 96.7377 89.0053C96.7377 88.3922 96.6355 87.8642 96.4482 87.4214C96.3119 86.9616 96.0565 86.5869 95.7499 86.2803ZM47.9091 41.948C40.6197 41.948 34.6929 47.8748 34.6929 55.1642C34.6929 62.4536 40.6197 68.3805 47.9091 68.3805C55.1985 68.3805 61.1254 62.4536 61.1254 55.1642C61.1254 47.8748 55.1985 41.948 47.9091 41.948ZM47.9091 65.0594C42.4421 65.0594 37.9969 60.6142 37.9969 55.1472C37.9969 49.6802 42.4421 45.235 47.9091 45.235C53.3762 45.235 57.8213 49.6802 57.8213 55.1472C57.8213 60.6142 53.3762 65.0594 47.9091 65.0594Z" fill="#F4AC05"/>
<path d="M69.4196 49.9697H66.2006C65.7919 48.522 65.2128 47.1255 64.4805 45.8311L66.7456 43.5659C67.0522 43.2594 67.2225 42.8336 67.2225 42.3908C67.2225 41.948 67.0522 41.5392 66.7456 41.2156L61.7896 36.2595C61.1424 35.6123 60.1035 35.6123 59.4563 36.2595L57.1741 38.5417C55.8627 37.8094 54.4831 37.2303 53.0185 36.8386V33.6367C53.0185 32.7341 52.2861 31.9847 51.3664 31.9847H44.3666C43.9238 31.9847 43.515 32.155 43.1914 32.4616C42.8849 32.7681 42.7146 33.1939 42.7146 33.6367V36.8556C41.2669 37.2644 39.8703 37.8434 38.576 38.5758L36.3108 36.3106C35.6977 35.6975 34.5906 35.6975 33.9775 36.3106L29.0214 41.2667C28.3742 41.9139 28.3742 42.9528 29.0214 43.6L31.3036 45.8822C30.5713 47.1936 29.9922 48.5901 29.6005 50.0378H26.3986C25.9558 50.0378 25.5471 50.2081 25.2235 50.5147C24.9169 50.8212 24.7466 51.247 24.7466 51.6898V58.6897C24.7466 59.6094 25.4789 60.3417 26.3986 60.3417H29.6175C30.0263 61.7894 30.6053 63.1689 31.3377 64.4803L29.0725 66.7455C28.4253 67.3926 28.4253 68.4316 29.0725 69.0787L34.0286 74.0348C34.6758 74.682 35.7147 74.682 36.3619 74.0348L38.6441 71.7527C39.9555 72.485 41.352 73.0641 42.7997 73.4558V76.6576C42.7997 77.5773 43.5321 78.3097 44.4517 78.3097H51.4516C52.3713 78.3097 53.1036 77.5773 53.1036 76.6576V73.4387C54.5513 73.03 55.9478 72.4509 57.2422 71.7186L59.5074 73.9837C59.8139 74.2903 60.2397 74.4606 60.6825 74.4606C61.1253 74.4606 61.5341 74.2903 61.8577 73.9837L66.8138 69.0276C67.461 68.3805 67.461 67.3416 66.8138 66.6944L64.5316 64.4122C65.2639 63.1008 65.843 61.7212 66.2347 60.2566H69.4366C69.8794 60.2566 70.2881 60.0862 70.6117 59.7797C70.9183 59.4731 71.0886 59.0473 71.0886 58.6045V51.6047C71.0716 50.702 70.3392 49.9697 69.4196 49.9697ZM64.9233 56.9695C64.1399 56.9695 63.4586 57.5145 63.3053 58.298C62.9136 60.2566 62.1472 62.113 61.0572 63.782C60.6314 64.4292 60.7166 65.2978 61.2786 65.8598L63.3053 67.8866L60.6825 70.5094L58.6728 68.4997C58.1108 67.9376 57.2422 67.8525 56.595 68.2953C54.943 69.4023 53.1036 70.1517 51.128 70.5605C50.3616 70.7137 49.8166 71.395 49.8166 72.1784V75.0567H46.1208V72.1955C46.1208 71.412 45.5758 70.7308 44.7924 70.5775C42.8338 70.1858 40.9774 69.4194 39.3083 68.3294C38.6611 67.9036 37.7925 67.9887 37.2305 68.5508L35.2038 70.5775L32.581 67.9547L34.5906 65.945C35.1527 65.383 35.2378 64.5144 34.795 63.8672C33.688 62.1981 32.9386 60.3758 32.5299 58.4001C32.3766 57.6337 31.6953 57.0887 30.9119 57.0887H28.0506V53.393H30.9119C31.6953 53.393 32.3766 52.848 32.5299 52.0645C32.9216 50.0889 33.688 48.2495 34.778 46.5805C35.2038 45.9333 35.1186 45.0647 34.5566 44.5026L32.5299 42.4759L35.1527 39.8531L37.1624 41.8628C37.7244 42.4248 38.593 42.51 39.2402 42.0672C40.8922 40.9601 42.7316 40.2108 44.7072 39.802C45.4736 39.6487 46.0186 38.9675 46.0186 38.1841V35.3228H49.7144V38.1841C49.7144 38.9675 50.2594 39.6487 51.0428 39.802C53.0185 40.1937 54.8578 40.9601 56.5099 42.0501C57.1571 42.4759 58.0257 42.3908 58.5877 41.8287L60.6144 39.802L63.2372 42.4078L61.2275 44.4175C60.6655 44.9795 60.5803 45.8481 61.0232 46.4953C62.1302 48.1473 62.8796 49.9867 63.2883 51.9623C63.4416 52.7287 64.1228 53.2737 64.9063 53.2737H67.7675V56.9695H64.9233Z" fill="#F4AC05"/>
<path d="M51.1787 55.2494C50.9233 54.9939 50.6167 54.7725 50.2931 54.6022C49.9525 54.4319 49.6289 54.2786 49.2712 54.1424C48.9306 54.0061 48.59 53.8869 48.2494 53.7677C47.9087 53.6485 47.6192 53.5122 47.3637 53.376C47.1083 53.2227 46.8869 53.0524 46.7336 52.848C46.5803 52.6436 46.4951 52.3881 46.4951 52.0986C46.4951 51.9113 46.5292 51.741 46.5973 51.5706C46.6655 51.4174 46.7676 51.2811 46.9209 51.1619C47.0742 51.0427 47.2615 50.9575 47.4829 50.8894C47.7214 50.8213 47.9939 50.7872 48.3345 50.7872C48.6922 50.7872 49.0328 50.8213 49.3223 50.9064C49.6289 50.9916 49.8844 51.0767 50.1228 51.1789C50.3612 51.2811 50.5486 51.3663 50.7019 51.4514C50.8551 51.5366 50.9744 51.5706 51.0595 51.5706C51.1106 51.5706 51.1447 51.5536 51.1787 51.5366C51.2128 51.5195 51.2469 51.4685 51.2639 51.4003C51.2809 51.3322 51.2979 51.23 51.315 51.1108C51.332 50.9916 51.332 50.8213 51.332 50.6339C51.332 50.4806 51.332 50.3614 51.315 50.2422C51.2979 50.123 51.298 50.0378 51.2809 49.9527C51.2639 49.8675 51.2469 49.7994 51.2128 49.7483C51.1787 49.6972 51.1447 49.6461 51.0936 49.595C51.0425 49.5439 50.9403 49.4758 50.804 49.4077C50.6678 49.3395 50.5145 49.2714 50.3442 49.2203C50.1739 49.1522 49.9865 49.1011 49.7992 49.067C49.5948 49.016 49.4245 48.9819 49.2372 48.9649L49.4245 47.1766C49.4245 47.1085 49.4075 47.0403 49.3905 46.9892C49.3734 46.9381 49.3223 46.887 49.2542 46.853C49.1861 46.8189 49.0839 46.7849 48.9476 46.7678C48.8114 46.7508 48.6581 46.7338 48.4537 46.7338C48.2834 46.7338 48.1642 46.7338 48.062 46.7508C47.9598 46.7678 47.8747 46.7849 47.8236 46.8189C47.7555 46.853 47.7214 46.887 47.7044 46.9211C47.6873 46.9552 47.6703 47.0063 47.6533 47.0574L47.4659 48.9649C46.9209 49.033 46.427 49.1522 45.9842 49.3225C45.5584 49.5099 45.1837 49.7313 44.8942 50.0378C44.6047 50.3274 44.3662 50.668 44.2129 51.0597C44.0597 51.4514 43.9745 51.8772 43.9745 52.3541C43.9745 52.882 44.0597 53.3249 44.2129 53.6995C44.3662 54.0742 44.5706 54.3808 44.8431 54.6533C45.0986 54.9088 45.3881 55.1302 45.7287 55.3175C46.0523 55.4878 46.393 55.6581 46.7336 55.7774C47.0742 55.9136 47.4148 56.0328 47.7384 56.152C48.062 56.2713 48.3515 56.4075 48.624 56.5438C48.8795 56.697 49.0839 56.8674 49.2542 57.0547C49.4075 57.2591 49.4926 57.4975 49.4926 57.8041C49.4926 58.2639 49.3053 58.6216 48.9476 58.8941C48.59 59.1666 48.028 59.3028 47.2956 59.3028C46.8187 59.3028 46.41 59.2517 46.0523 59.1666C45.6947 59.0644 45.4051 58.9622 45.1497 58.86C44.8942 58.7408 44.7069 58.6386 44.5365 58.5535C44.3833 58.4513 44.264 58.4172 44.1789 58.4172C44.1108 58.4172 44.0597 58.4342 44.0086 58.4683C43.9575 58.5024 43.9234 58.5534 43.8894 58.6216C43.8553 58.6897 43.8383 58.8089 43.8212 58.9452C43.8042 59.0814 43.8042 59.2688 43.8042 59.4731C43.8042 59.7456 43.8212 59.967 43.8553 60.1033C43.8894 60.2395 43.9405 60.3588 44.0086 60.4269C44.0767 60.495 44.1959 60.5802 44.3322 60.6483C44.4684 60.7164 44.6387 60.8016 44.8431 60.8697C45.0475 60.9378 45.2519 61.006 45.5073 61.0741C45.7458 61.1422 46.0012 61.1763 46.2737 61.2274L46.0694 63.1519C46.0523 63.22 46.0694 63.2881 46.0864 63.3392C46.1034 63.3903 46.1545 63.4414 46.2226 63.4755C46.2908 63.5095 46.3929 63.5436 46.5122 63.5606C46.6314 63.5777 46.8017 63.5947 47.0061 63.5947C47.1594 63.5947 47.2956 63.5947 47.3978 63.5777C47.5 63.5606 47.5851 63.5436 47.6533 63.5095C47.7214 63.4925 47.7554 63.4585 47.7725 63.4074C47.7895 63.3733 47.8065 63.3222 47.8065 63.2711L48.0109 61.2444C48.624 61.1933 49.169 61.0741 49.68 60.8867C50.1739 60.6994 50.6167 60.4439 50.9573 60.1203C51.315 59.7967 51.5875 59.422 51.7748 58.9963C51.9622 58.5535 52.0644 58.0766 52.0644 57.5316C52.0644 57.0206 51.9792 56.5778 51.8259 56.2202C51.6386 55.8114 51.4342 55.5049 51.1787 55.2494Z" fill="#F4AC05"/>
</svg>
