<svg width="72" height="95" viewBox="0 0 72 95" fill="none" xmlns="http://www.w3.org/2000/svg">
<g clip-path="url(#clip0_311_4185)">
<path fill-rule="evenodd" clip-rule="evenodd" d="M50.6596 30.2027L62.5736 30.2487C62.566 31.8617 62.2447 33.4571 61.6286 34.9416C61.0124 36.4261 60.1138 37.7701 58.9851 38.8951C58.4559 39.4361 57.8759 39.9224 57.2536 40.3469L50.6237 30.2395L50.6596 30.2027ZM23.9067 29.6147H27.7555C27.8033 29.6135 27.851 29.6221 27.8955 29.64C27.9401 29.6579 27.9807 29.6848 28.015 29.719C28.0493 29.7533 28.0765 29.7942 28.0951 29.8394C28.1137 29.8846 28.1233 29.9332 28.1233 29.9822V37.4617C28.1209 37.56 28.0812 37.6535 28.0124 37.7221C27.9437 37.7908 27.8515 37.8292 27.7555 37.8292H23.9067C23.8107 37.8292 23.7185 37.7908 23.6497 37.7221C23.581 37.6535 23.5412 37.56 23.5389 37.4617V29.9822C23.5389 29.9332 23.5484 29.8846 23.567 29.8394C23.5856 29.7942 23.6129 29.7533 23.6471 29.719C23.6814 29.6848 23.722 29.6579 23.7666 29.64C23.8112 29.6221 23.8588 29.6135 23.9067 29.6147ZM10.7366 25.5074H14.5854C14.6325 25.5062 14.6794 25.5145 14.7234 25.5319C14.7674 25.5492 14.8076 25.5753 14.8418 25.6085C14.8759 25.6418 14.9034 25.6817 14.9225 25.7258C14.9416 25.7699 14.952 25.8175 14.9532 25.8658V37.4709C14.952 37.5191 14.9416 37.5667 14.9225 37.6108C14.9034 37.655 14.8759 37.6948 14.8418 37.7281C14.8076 37.7614 14.7674 37.7874 14.7234 37.8048C14.6794 37.8221 14.6325 37.8304 14.5854 37.8292H10.7366C10.6895 37.8304 10.6426 37.8221 10.5986 37.8048C10.5546 37.7874 10.5144 37.7614 10.4802 37.7281C10.4461 37.6948 10.4186 37.655 10.3995 37.6108C10.3804 37.5667 10.37 37.5191 10.3688 37.4709V25.8658C10.37 25.8175 10.3804 25.7699 10.3995 25.7258C10.4186 25.6817 10.4461 25.6418 10.4802 25.6085C10.5144 25.5753 10.5546 25.5492 10.5986 25.5319C10.6426 25.5145 10.6895 25.5062 10.7366 25.5074ZM17.0346 22.5763H20.8833C20.9312 22.5751 20.9788 22.5837 21.0234 22.6016C21.068 22.6195 21.1086 22.6464 21.1429 22.6806C21.1772 22.7149 21.2044 22.7558 21.223 22.801C21.2416 22.8462 21.2512 22.8948 21.2512 22.9438V37.4617C21.2488 37.56 21.209 37.6535 21.1403 37.7221C21.0716 37.7908 20.9794 37.8292 20.8833 37.8292H17.0346C16.9867 37.8304 16.9391 37.8218 16.8945 37.8039C16.8499 37.786 16.8093 37.7591 16.775 37.7249C16.7407 37.6906 16.7135 37.6497 16.6949 37.6045C16.6763 37.5593 16.6667 37.5107 16.6668 37.4617V22.9714C16.6655 22.922 16.6741 22.8728 16.6923 22.827C16.7104 22.7812 16.7376 22.7397 16.7722 22.7052C16.8067 22.6707 16.8479 22.6439 16.893 22.6264C16.9382 22.609 16.9864 22.6013 17.0346 22.6039V22.5763ZM10.7994 82.9815C10.5803 82.9817 10.364 82.9304 10.1673 82.8317C9.97046 82.7329 9.79836 82.5894 9.66412 82.412C9.52989 82.2346 9.43709 82.028 9.39284 81.8082C9.3486 81.5884 9.35407 81.3612 9.40886 81.1438C9.49507 80.8164 9.68599 80.528 9.95108 80.3248C10.2162 80.1216 10.5402 80.0153 10.8712 80.0229H61.3804C61.5994 80.0223 61.8155 80.0734 62.0121 80.1722C62.2087 80.271 62.3804 80.4148 62.514 80.5925C62.6476 80.7702 62.7395 80.977 62.7825 81.1969C62.8255 81.4168 62.8185 81.6439 62.762 81.8605C62.6724 82.187 62.479 82.4736 62.2126 82.6749C61.9461 82.8763 61.6217 82.9809 61.2907 82.9724L10.7994 82.9815ZM11.0865 72.424C10.8892 72.4236 10.6942 72.3811 10.5139 72.2991C10.3336 72.2171 10.172 72.0974 10.0394 71.9478C9.90683 71.7982 9.8062 71.6219 9.74397 71.4301C9.68174 71.2384 9.65927 71.0355 9.678 70.8343C9.72252 70.4576 9.90253 70.1115 10.1829 69.8634C10.4632 69.6153 10.8238 69.4832 11.1942 69.4928H61.192C61.3897 69.4945 61.5849 69.5382 61.7653 69.6212C61.9456 69.7042 62.1071 69.8247 62.2395 69.975C62.372 70.1254 62.4724 70.3022 62.5346 70.4945C62.5967 70.6867 62.6192 70.89 62.6005 71.0916C62.554 71.4667 62.3731 71.8106 62.0929 72.0568C61.8128 72.303 61.4534 72.4338 61.0844 72.424H11.0865ZM10.6469 61.2875C10.4285 61.2862 10.2133 61.2339 10.0177 61.1346C9.82201 61.0352 9.65105 60.8915 9.51782 60.7143C9.38459 60.5371 9.2926 60.3311 9.24884 60.1119C9.20508 59.8928 9.21072 59.6663 9.26531 59.4498C9.35348 59.1249 9.54548 58.8397 9.81059 58.6399C10.0757 58.44 10.3986 58.3369 10.7277 58.3472H32.2591C32.4775 58.3484 32.6927 58.4007 32.8884 58.5001C33.084 58.5994 33.255 58.7431 33.3882 58.9204C33.5214 59.0976 33.6134 59.3036 33.6572 59.5227C33.701 59.7418 33.6953 59.9683 33.6407 60.1849C33.5494 60.5096 33.3554 60.7941 33.0891 60.9937C32.8227 61.1933 32.4993 61.2966 32.1694 61.2875H10.6469ZM38.0726 61.2875C37.8542 61.2862 37.639 61.2339 37.4434 61.1346C37.2477 61.0352 37.0768 60.8915 36.9435 60.7143C36.8103 60.5371 36.7183 60.3311 36.6745 60.1119C36.6308 59.8928 36.6364 59.6663 36.691 59.4498C36.7802 59.1202 36.9763 58.8314 37.2469 58.6311C37.5176 58.4307 37.8467 58.3306 38.1803 58.3472H61.4163C61.6353 58.3466 61.8514 58.3977 62.048 58.4965C62.2446 58.5953 62.4163 58.7391 62.5499 58.9168C62.6835 59.0945 62.7754 59.3013 62.8184 59.5212C62.8614 59.7411 62.8544 59.9682 62.7979 60.1849C62.7099 60.513 62.5173 60.8017 62.2507 61.0048C61.9841 61.2079 61.6588 61.3139 61.3266 61.3059L38.0726 61.2875ZM10.6559 51.8968C10.4583 51.8963 10.2629 51.8538 10.0822 51.7719C9.90144 51.69 9.7393 51.5705 9.60603 51.4211C9.47276 51.2716 9.37126 51.0954 9.30798 50.9037C9.24469 50.712 9.221 50.5088 9.2384 50.3072C9.28484 49.9313 9.46541 49.5864 9.74533 49.3387C10.0252 49.091 10.3847 48.9582 10.7546 48.9657H28.4283C28.6243 48.9664 28.818 49.0084 28.9975 49.0892C29.1769 49.17 29.3381 49.2878 29.4711 49.4352C29.6041 49.5826 29.706 49.7565 29.7705 49.9461C29.835 50.1356 29.8606 50.3368 29.8458 50.5369C29.8052 50.9202 29.6245 51.2735 29.3398 51.5258C29.0552 51.7781 28.6879 51.9107 28.3117 51.8968H10.6559Z" fill="#F4AC05"/>
<path fill-rule="evenodd" clip-rule="evenodd" d="M10.6018 14.9497C10.2419 14.9205 9.90591 14.7534 9.66089 14.4818C9.41586 14.2102 9.27979 13.8539 9.27979 13.4841C9.27979 13.1143 9.41586 12.7581 9.66089 12.4865C9.90591 12.2148 10.2419 12.0478 10.6018 12.0186H21.224C21.584 12.0478 21.9199 12.2148 22.165 12.4865C22.41 12.7581 22.5461 13.1143 22.5461 13.4841C22.5461 13.8539 22.41 14.2102 22.165 14.4818C21.9199 14.7534 21.584 14.9205 21.224 14.9497H10.6018ZM49.7353 15.3724L50.3363 27.4828L62.1517 26.6467C61.8239 23.5306 60.3736 20.6516 58.0843 18.5719C55.795 16.4923 52.831 15.3613 49.7711 15.3999L49.7353 15.3724ZM48.0486 29.8443L54.4363 41.1737C52.8074 42.1373 50.9908 42.7206 49.1163 42.8819C47.2417 43.0432 45.3556 42.7785 43.5925 42.1068C41.8294 41.4351 40.2329 40.3729 38.9171 38.9961C37.6012 37.6192 36.5985 35.9618 35.9805 34.1421C35.3624 32.3224 35.1444 30.3854 35.342 28.4694C35.5395 26.5534 36.1477 24.7058 37.1232 23.0584C38.0986 21.4111 39.4173 20.0047 40.9849 18.9397C42.5525 17.8747 44.3304 17.1774 46.1915 16.8977L48.0486 29.8443Z" fill="#F4AC05"/>
<path d="M64.5112 95H7.48875C5.63677 95 3.86052 94.2471 2.55013 92.9068C1.23974 91.5664 0.502377 89.7481 0.5 87.8513L0.5 7.15785C0.5 5.25947 1.23631 3.43884 2.54696 2.09649C3.8576 0.754128 5.63522 0 7.48875 0L64.5112 0C65.429 0 66.3378 0.185143 67.1857 0.544859C68.0336 0.904574 68.8041 1.43182 69.453 2.09649C70.102 2.76115 70.6168 3.55023 70.968 4.41866C71.3192 5.28709 71.5 6.21787 71.5 7.15785V87.8513C71.4976 89.7481 70.7603 91.5664 69.4499 92.9068C68.1395 94.2471 66.3632 95 64.5112 95ZM7.48875 3.5192C6.537 3.5192 5.62424 3.90643 4.95125 4.5957C4.27826 5.28497 3.90018 6.21983 3.90018 7.1946V87.8513C3.90018 88.8261 4.27826 89.761 4.95125 90.4502C5.62424 91.1395 6.537 91.5267 7.48875 91.5267H64.5112C65.463 91.5267 66.3758 91.1395 67.0488 90.4502C67.7217 89.761 68.0998 88.8261 68.0998 87.8513V7.15785C68.0998 6.18307 67.7217 5.24822 67.0488 4.55895C66.3758 3.86967 65.463 3.48245 64.5112 3.48245L7.48875 3.5192Z" fill="#F4AC05"/>
</g>
<defs>
<clipPath id="clip0_311_4185">
<rect width="71" height="95" fill="white" transform="translate(0.5)"/>
</clipPath>
</defs>
</svg>
