<svg width="109" height="109" viewBox="0 0 109 109" fill="none" xmlns="http://www.w3.org/2000/svg">
<g clip-path="url(#clip0_140_6325)">
<path d="M108.983 22.8049C108.966 22.7027 108.949 22.5835 108.915 22.4813C108.881 22.4131 108.864 22.345 108.847 22.2769C108.779 22.1577 108.71 22.0725 108.625 21.9703C108.591 21.9192 108.574 21.8852 108.523 21.8341L88.1197 1.22626C87.8472 0.936731 87.4725 0.766418 87.0638 0.766418H36.1573C31.065 0.766418 26.9094 4.90501 26.9094 9.99736V36.1063H6.06313C2.725 36.1063 0 38.8313 0 42.1694V102.17C0 105.526 2.725 108.234 6.06313 108.234H50.7872C53.8187 108.234 56.3053 106.02 56.7652 103.124H99.752C104.844 103.124 109 98.9686 109 93.8763V22.9241C109 22.89 108.983 22.856 108.983 22.8049ZM53.8358 101.574C53.8188 101.608 53.8358 101.608 53.8358 101.625V102.17C53.8358 103.857 52.4562 105.236 50.7702 105.236H6.06313C4.37703 105.236 3.01453 103.857 3.01453 102.17V42.1694C3.01453 40.4663 4.37703 39.1038 6.06313 39.1038H28.4081C28.4252 39.1038 28.4252 39.1038 28.4422 39.1038H50.8042C52.4903 39.1038 53.8698 40.4663 53.8698 42.1694V101.574H53.8358ZM106.003 93.8592C106.003 97.2996 103.192 100.093 99.752 100.093H56.8333V42.1694C56.8333 38.8142 54.1253 36.0892 50.7702 36.0892H29.9239V10.0144C29.9239 6.59111 32.717 3.78095 36.1573 3.78095H85.565V20.0628C85.565 22.4813 87.5406 24.4569 89.9591 24.4569H106.003V93.8592Z" fill="#F4AC05"/>
<path d="M78.0541 12.6031C78.0541 11.7686 77.3728 11.1044 76.5553 11.1044H38.9162C38.0817 11.1044 37.4175 11.7856 37.4175 12.6031C37.4175 13.4206 38.0987 14.1019 38.9162 14.1019H76.5553C77.3728 14.1189 78.0541 13.4377 78.0541 12.6031ZM78.0541 22.9411C78.0541 22.1066 77.3728 21.4423 76.5553 21.4423H62.4875C61.6529 21.4423 60.9887 22.1236 60.9887 22.9411C60.9887 23.7756 61.67 24.4398 62.4875 24.4398H76.5553C77.3728 24.4398 78.0541 23.7756 78.0541 22.9411ZM69.2489 33.1939C69.2489 34.0284 69.9301 34.6926 70.7476 34.6926H97.2653C98.0998 34.6926 98.764 34.0114 98.764 33.1939C98.764 32.3594 98.0828 31.6952 97.2653 31.6952H70.7647C69.9301 31.6952 69.2489 32.3594 69.2489 33.1939ZM97.2823 41.9309H76.5553C75.7208 41.9309 75.0566 42.6122 75.0566 43.4297C75.0566 44.2642 75.7378 44.9284 76.5553 44.9284H97.2823C98.1169 44.9284 98.7811 44.2472 98.7811 43.4297C98.7811 42.6122 98.1169 41.9309 97.2823 41.9309ZM97.2823 52.1837H76.5553C75.7208 52.1837 75.0566 52.865 75.0566 53.6825C75.0566 54.5 75.7378 55.1812 76.5553 55.1812H97.2823C98.1169 55.1812 98.7811 54.5 98.7811 53.6825C98.7811 52.865 98.1169 52.1837 97.2823 52.1837ZM97.2823 62.4366H74.4264C73.5919 62.4366 72.9276 63.1178 72.9276 63.9353C72.9276 64.7698 73.6089 65.4341 74.4264 65.4341H97.2823C98.1169 65.4341 98.7811 64.7528 98.7811 63.9353C98.7811 63.1178 98.1169 62.4366 97.2823 62.4366ZM84.3386 70.6627C77.2025 70.6627 71.3948 76.4703 71.3948 83.6064C71.3948 90.7595 77.2025 96.5501 84.3386 96.5501C91.4747 96.5501 97.2823 90.7425 97.2823 83.6064C97.2823 76.4703 91.4747 70.6627 84.3386 70.6627ZM84.3386 82.1076C86.7229 82.1076 88.6816 84.0662 88.6816 86.4506C88.6816 88.307 87.4894 89.8739 85.8373 90.5041V90.9639C85.8373 91.7984 85.1561 92.4797 84.3386 92.4797C83.5211 92.4797 82.8398 91.7984 82.8398 90.9639V90.5041C81.1878 89.8739 79.9956 88.307 79.9956 86.4506C79.9956 85.6331 80.6769 84.9519 81.5114 84.9519C82.3289 84.9519 83.0101 85.6331 83.0101 86.4506C83.0101 87.183 83.6062 87.7791 84.3386 87.7791C85.0709 87.7791 85.667 87.183 85.667 86.4506C85.667 85.7183 85.0709 85.1222 84.3386 85.1222C81.9542 85.1222 79.9956 83.1636 79.9956 80.7792C79.9956 78.9058 81.1878 77.3559 82.8398 76.7258V76.2489C82.8398 75.4314 83.5211 74.7501 84.3386 74.7501C85.1561 74.7501 85.8373 75.4314 85.8373 76.2489V76.7258C87.4894 77.3559 88.6816 78.9058 88.6816 80.7792C88.6816 81.5967 88.0003 82.278 87.1658 82.278C86.3483 82.278 85.667 81.5967 85.667 80.7792C85.667 80.0469 85.0709 79.4508 84.3386 79.4508C83.6062 79.4508 83.0101 80.0469 83.0101 80.7792C83.0101 81.5116 83.6062 82.1076 84.3386 82.1076Z" fill="#F4AC05"/>
<path d="M10.4399 92.2252H16.4009C17.3606 92.2252 18.1194 92.9843 18.1196 93.944V98.5602C18.1194 99.508 17.3554 100.279 16.4009 100.279H10.4399C9.48544 100.279 8.72138 99.508 8.72119 98.5602V93.944C8.7214 92.9844 9.48029 92.2253 10.4399 92.2252ZM40.4321 92.2252H46.4097C47.3472 92.2252 48.1116 92.9791 48.1118 93.944V98.5602C48.1116 99.5132 47.342 100.279 46.4097 100.279H40.4321C39.4776 100.279 38.7136 99.508 38.7134 98.5602V93.944C38.7136 92.9843 39.4724 92.2252 40.4321 92.2252ZM25.4272 92.2252H31.4058C32.3535 92.2253 33.1243 92.9895 33.1245 93.944V98.5602C33.1244 99.3006 32.6437 99.9382 31.9526 100.169L31.9321 100.174C31.9151 100.178 31.8963 100.182 31.8765 100.187L31.8208 100.201L31.7808 100.214C31.7744 100.216 31.7644 100.218 31.7485 100.22C31.7317 100.223 31.7137 100.227 31.687 100.231L31.5659 100.251C31.5286 100.254 31.4958 100.258 31.4683 100.261C31.4208 100.267 31.3747 100.275 31.3501 100.279H25.4272C24.4847 100.279 23.7087 99.5027 23.7085 98.5602V93.944C23.7087 92.9896 24.4795 92.2254 25.4272 92.2252ZM10.4399 78.0211H16.4009C17.3712 78.0211 18.1196 78.7913 18.1196 79.7067V84.3385C18.1196 85.2984 17.3607 86.0573 16.4009 86.0573H10.4399C9.48016 86.0572 8.72119 85.2983 8.72119 84.3385V79.7233C8.72119 78.7857 9.47497 78.0212 10.4399 78.0211ZM25.4272 78.0211H31.4058C32.3641 78.0212 33.1245 78.7965 33.1245 79.7067V84.3385C33.1245 85.2931 32.3537 86.0571 31.4058 86.0573H25.4272C24.4794 86.0571 23.7085 85.2931 23.7085 84.3385V79.7233C23.7085 78.7909 24.4742 78.0213 25.4272 78.0211ZM40.4321 78.0211H46.4097C47.3577 78.0211 48.1118 78.7861 48.1118 79.7067V84.3385C48.1118 85.3036 47.3473 86.0573 46.4097 86.0573H40.4321C39.4723 86.0572 38.7134 85.2984 38.7134 84.3385V79.7233C38.7134 78.7856 39.4671 78.0211 40.4321 78.0211ZM10.4399 63.7828H16.4009C17.3556 63.7828 18.1196 64.5546 18.1196 65.5026V70.1178C18.1195 71.0657 17.3555 71.8365 16.4009 71.8365H10.4399C9.48539 71.8365 8.72128 71.0657 8.72119 70.1178V65.5026C8.72119 64.5546 9.48533 63.7829 10.4399 63.7828ZM25.4272 63.7828H31.4058C32.3485 63.7829 33.1245 64.5598 33.1245 65.5026V70.1178C33.1244 71.0605 32.3484 71.8364 31.4058 71.8365H25.4272C24.4846 71.8364 23.7086 71.0604 23.7085 70.1178V65.5026C23.7085 64.5599 24.4846 63.783 25.4272 63.7828ZM40.4321 63.7828H46.4097C47.3421 63.7828 48.1118 64.5494 48.1118 65.5026V70.1178C48.1117 71.0709 47.3421 71.8365 46.4097 71.8365H40.4321C39.4775 71.8365 38.7135 71.0657 38.7134 70.1178V65.5026C38.7134 64.5546 39.4774 63.7828 40.4321 63.7828ZM10.5249 44.1803H46.3081C47.2968 44.1804 48.1116 45.0023 48.1118 45.984V55.8112C48.1118 56.8271 47.2969 57.6323 46.3081 57.6324H10.5249C9.53616 57.6323 8.72119 56.827 8.72119 55.8112V46.0016C8.72119 44.9977 9.54116 44.1805 10.5249 44.1803Z" stroke="#F4AC05" stroke-width="3"/>
</g>
<defs>
<clipPath id="clip0_140_6325">
<rect width="109" height="109" fill="white"/>
</clipPath>
</defs>
</svg>
